<?xml version="1.0" encoding="utf-8"?>
<!-- Generator: Adobe Illustrator 19.2.1, SVG Export Plug-In . SVG Version: 6.00 Build 0)  -->
<svg version="1.1" xmlns="http://www.w3.org/2000/svg" xmlns:xlink="http://www.w3.org/1999/xlink" x="0px" y="0px"
	 viewBox="0 0 105 105" style="enable-background:new 0 0 105 105;" xml:space="preserve">
<style type="text/css">
	.st0{display:none;}
	.st1{display:inline;}
	.st2{fill:#774084;}
	.st3{fill:#FFFFFF;}
	.st4{display:none;fill:#F2F2F9;}
	.st5{display:inline;opacity:0.25;}
	.st6{clip-path:url(#SVGID_6_);}
	.st7{opacity:0.6;clip-path:url(#SVGID_6_);fill:#050505;}
	.st8{display:none;clip-path:url(#SVGID_6_);}
	.st9{fill:#C6E0A6;}
	.st10{display:inline;fill:#C6E0A6;}
	.st11{fill:none;stroke:#558B2F;stroke-width:2;stroke-miterlimit:10;}
	.st12{fill:none;stroke:#C6E0A6;stroke-width:3;stroke-miterlimit:10;}
	.st13{fill:none;stroke:#C6E0A6;stroke-width:3;stroke-miterlimit:10;stroke-dasharray:19.6863,19.6863;}
	.st14{fill:#679F42;}
	.st15{opacity:0.7;}
	.st16{fill:none;stroke:#2E7D32;stroke-width:4;stroke-miterlimit:10;}
	.st17{fill:none;stroke:#679F42;stroke-width:2;stroke-miterlimit:10;stroke-dasharray:12,12;}
	.st18{fill:#FF5722;}
	.st19{fill:#3949AB;stroke:#0D47A1;stroke-miterlimit:10;}
	.st20{fill:#F4511E;}
</style>
<g id="extra-stuff" class="st0">
</g>
<g id="main">
</g>
<g id="section-1">
</g>
<g id="section-2">
	<g>
		<g>
			<path class="st14" d="M89.5,91.3c-1.2-4.3-3.4-8.3-6.5-11.7c-3.5-3.8-7.8-6.8-12.5-8.9c1.2-0.8,2.2-1.7,3.2-2.8
				c1.7-1.9,3.2-3.9,4.3-6.3c0.3-0.6,0.5-1.2,0.7-1.7l0.3-0.9c0.1-0.3,0.2-0.6,0.3-0.9l0.5-1.8c0.1-0.6,0.2-1.2,0.3-1.9
				c0.3-1.2,0-2.3-0.4-3c-0.1-0.1-0.1-0.1-0.1-0.3c0.1-0.1,0.2-0.3,0.3-0.4c0.2-0.3,0.3-0.6,0.5-1c0.1-0.2,0.1-0.4,0.1-0.6l0.1-0.5
				c0.1-0.5,0.1-0.9,0.1-1.4c0.1-1.7,0-3.4-0.2-5.1c-0.2-1.6-0.7-3-1.4-3.9c-0.3-0.4-0.6-0.7-1-0.9c0.3,0.1,0.6-0.1,0.7-0.2l0,0
				c1-4.7,1.6-9.4,1.6-14v-4.3c0.1,0,0.1,0.1,0.2,0.1c1,0.3,2.7,0.2,4.3-0.8c0.8-0.5,1.6-1.3,2.1-2.1c0.6-0.9,0.9-1.9,1-2.8
				c0.3-1.9-0.1-3.8-0.8-5.4c-1.4-3.2-4.2-5.8-7.6-6.7c-0.5-0.1-0.8-0.2-1.3-0.3s-0.9-0.1-1.2-0.1c-0.7-0.1-1.5-0.1-2.2-0.1
				c-1.5-0.1-3-0.1-4.4-0.1c-2.9,0-5.8,0.1-8.7,0.1l-7.1,0.2c-2.3,0.1-4.7,0-7,0c-4.7-0.1-9.4-0.3-14.3,0.1
				c-1.2,0.1-2.4,0.2-3.6,0.3l-1.7,0.3c-0.6,0.1-1.2,0.1-1.8,0.3c-1.2,0.2-2.7,0.6-3.9,1.5c-1.2,0.8-2,1.9-2.7,3.2
				c-1.2,2.5-0.9,5.6,0.4,7.8c1.3,2.3,3.8,3.9,6.3,4.1l0,0c0.1,0,0.3,0,0.3,0c-0.5,3.2-0.8,6.5-0.8,9.7v8.6c0,0.5,0.5,0.8,1.1,1
				L27,37.5c-0.2,0.3-0.2,0.5-0.3,0.6c-0.1,0.2-0.2,0.4-0.2,0.6c-0.3,0.8-0.4,1.6-0.5,2.3c-0.2,1.5-0.3,2.9-0.2,4.4
				c0.1,1.5,0.3,2.9,0.9,4.6c0.1,0.2,0.2,0.5,0.3,0.7l0.3,0.4c0.1,0.1,0.2,0.3,0.3,0.4l0.1,0.1c-0.1,3.7,0.5,7.4,2.1,10.9
				c0.8,1.8,1.9,3.5,3.2,5c0.6,0.7,1.4,1.5,2.1,2.1c0.8,0.6,1.6,1.4,2.4,1.9c0.1,0,0.1,0.1,0.1,0.1c-3.7,1-7.3,2.7-10.5,5
				c-3.6,2.7-6.7,6.1-8.7,10.2c-2.6,4.9-3.9,10.4-4.1,15.7c-0.1,1.3,0.9,2.3,2.1,2.3s2.1-1,2.2-2.1c0.3-4.9,1.4-9.7,3.6-14
				c3.6-6.9,9.5-12.5,16.8-16.2c6.5,3.8,14.4,4.7,21.7,2.8c2-0.5,4-1.3,5.9-2.2c0.2,0.6,0.6,1,1.2,1.2c4.5,1.8,8.6,4.6,11.8,8.2
				c2.7,2.9,4.8,6.3,6.4,10c1.6,3.7,2.6,7.7,3.2,11.8l0,0c0.1,0.5,1,0.6,1.1,0C91,100,90.8,95.5,89.5,91.3z M26.6,16.8L26.6,16.8
				c-2.1-0.4-3.9-1.9-4.8-3.8C21,11.1,21,8.8,22,7.2c0.3-0.4,0.5-0.8,0.9-1.2c0.3-0.3,0.7-0.6,1.1-0.9c0.8-0.5,1.7-0.6,2.7-0.8
				c0.5-0.1,1.1-0.1,1.7-0.1l1.7-0.1C31.3,4,32.4,4,33.6,4c4.6-0.1,9.3,0.3,14,0.5c2.4,0.1,4.8,0.2,7.2,0.2s4.8-0.1,7.1-0.1
				c2.8-0.1,5.8-0.1,8.5-0.1c1.4,0,2.8,0.1,4.2,0.1c0.7,0.1,1.4,0.1,2.1,0.1c0.4,0,0.6,0.1,0.9,0.1c0.3,0.1,0.5,0.1,0.8,0.2
				c2.1,0.6,4,2.3,4.9,4.3c0.5,1,0.6,2.1,0.5,3c-0.1,0.9-0.6,1.6-1.4,2.1c-0.6,0.5-1.4,0.8-2.1,1.3v-1.2c0-0.7-1-1.2-2.1-1.2
				s-2.1,0.6-2.1,1.2v8.6c0,4.7,0.5,9.4,1.6,14l0,0c0,0,0,0,0,0.1c-0.4-0.1-0.7-0.1-0.8,0.2c-0.3,0.5-0.6,0.9-0.7,1.9
				c-0.1,0.9-0.1,2.1,0.1,3.5c0.2,1.4,0.3,2.9,0.1,4.3c0,0.3-0.1,0.6-0.1,1v0.1h-0.1h-9.4H47.9h-4.1c-0.6,0-1.5,0-2.2,0.1l-2.1,0.2
				c-2.7,0.3-5.4,0.6-7.7,0.5c-0.3,0-0.6-0.1-0.8-0.1c-0.1,0-0.3-0.1-0.4-0.1c-0.1,0-0.2-0.1-0.3-0.1c-0.1,0-0.1,0-0.1-0.1
				c0,0,0,0,0-0.1c-0.1-0.1-0.1-0.1-0.1-0.2c-0.4-0.8-0.6-2.1-0.7-3.3c-0.1-1.2-0.1-2.5,0-3.7c0.1-0.6,0.1-1.2,0.3-1.7
				c0-0.1,0.1-0.3,0.1-0.3c0.1-0.1,0.1-0.3,0.1-0.3c0-0.1,0.1-0.1,0.1-0.2c0.1-0.1,0.1-0.1,0.2-0.1c0.1-0.1,0.5-0.1,0.7-0.1
				c0.6-0.1,1.2-0.1,1.7-0.2c1.2-0.1,2.4-0.1,3.6-0.2c2.4-0.1,4.9-0.1,7.2-0.2c4.9-0.1,9.7-0.1,14.6-0.2l0,0c1.4-0.1,1.4-1,0.1-1.1
				c-4.9-0.5-9.7-0.8-14.6-1.1c-2.5-0.1-4.9-0.3-7.3-0.3c-1.2-0.1-2.5-0.1-3.7-0.1c-0.6,0-1.2,0-1.9,0.1c-0.1,0-0.3,0-0.4,0v-7.8
				c0-4.7-0.5-9.4-1.6-14c-0.1-0.3-1-0.3-1.1,0c-0.3,1.1-0.5,2.3-0.6,3.4C26.8,16.8,26.8,16.8,26.6,16.8z M59.8,71.1
				c-6.7,1.7-14.3,0.9-20.3-2.7c-3-1.7-5.6-4.3-7.4-7.3c-1.6-2.7-2.7-5.7-3.1-8.9c0.1,0.1,0.1,0.1,0.2,0.1l0.7,0.2
				c0.2,0.1,0.4,0.1,0.6,0.1c0.5,0.1,0.8,0.1,1.2,0.1c3,0.2,5.8-0.1,8.4-0.3l2-0.2c0.6-0.1,1.1-0.1,1.9-0.1h4.1h18.8h9.4h0.1
				c-0.1,0.5-0.3,1-0.4,1.5l-0.3,1.6l-0.4,1.5c-0.1,0.3-0.1,0.5-0.2,0.8l-0.3,0.7c-0.2,0.5-0.4,1-0.6,1.4c-0.9,1.9-2.1,3.6-3.5,5.1
				c-1.5,1.5-3.1,2.8-4.9,3.8C63.8,69.7,61.9,70.5,59.8,71.1z"/>
			<path class="st14" d="M70.4,85.5C65.3,85,60.2,84.4,55,84c-2.6-0.2-5.2-0.3-7.8-0.3c-1.3,0-2.6,0-3.9,0.1
				c-1.3,0.1-2.7,0.2-3.8,0.3c-0.4,0-0.7,0-1.1,0.1c-0.1,0-0.5,0-0.8,0.1c-0.3,0.1-0.8,0.1-1.1,0.2c-0.7,0.2-1.4,0.7-1.8,1.3
				c-0.2,0.3-0.4,0.6-0.5,1l-0.1,0.3L34,87.1l-0.1,0.3l-0.3,1.2c-0.1,0.4-0.3,0.9-0.3,1.3c-0.2,0.9-0.3,1.7-0.3,2.7
				c-0.2,3.4,0.2,6.6,0.4,9.6c0.1,1.4,1,2.5,2.3,2.5c1.2,0,2.1-1.3,2.1-2.8c-0.2-3.2-0.6-6.3-0.4-9.1c0.1-0.7,0.1-1.4,0.3-2
				c0.1-0.3,0.1-0.6,0.3-1l0.3-1.1l0.1-0.3l1.6-0.1c1.4-0.1,2.6-0.2,3.9-0.3c1.2-0.1,2.5-0.2,3.8-0.3c2.5-0.1,5-0.2,7.6-0.3
				c5.1-0.2,10.2-0.3,15.4-0.8C71,86.6,71,85.6,70.4,85.5z"/>
			<path class="st14" d="M47,97c-0.8,0-1.6,0.1-1.9,0.1c-0.1,0-0.1-0.1-0.2-0.1l0,0l0,0l0,0l0,0l0,0l0,0c0,0-0.1,0,0.1-0.2
				c0.1-0.1,0.3-0.3,0.6-0.3h0.2c0.1-0.1,0.1,0,0.2,0c0.1,0.1,0.3,0.3,0.4,0.4C46.4,97,46.7,97,47,97c0.3,0,0.5,0,0.5-0.1
				c0.1-0.3,0.3-0.5,0.3-0.8c0-0.2,0.1-0.3,0-0.5c0-0.2-0.1-0.4-0.1-0.5c-0.3-0.6-0.6-0.8-1-1.1c-0.1-0.1-0.3-0.1-0.5-0.1
				c-0.2,0-0.4-0.1-0.7,0L45,94.1c-0.1,0-0.4,0.2-0.6,0.3l-0.6,0.3l-0.6,0.5l-0.3,0.3c-0.1,0.1,0,0.1,0,0.2l0.1,0.2l0.1,0.4
				c0.1,0.1,0.1,0.3,0.1,0.3c0.1,0.1,0.1,0.3,0.1,0.4l-0.2,0.4l-0.2,1l-0.1,0.2c0,0.1,0.1,0.1,0.1,0.1l0.3,0.3
				c0.2,0.2,0.4,0.5,0.6,0.6l0.6,0.4l0.4,0.3c0.1,0.1,0.2,0.1,0.3,0.1l0.6,0.2c0.2,0.1,0.3,0,0.5,0c0.1,0,0.3,0,0.4,0
				c0.4-0.1,0.7-0.2,1-0.3c0.3-0.2,0.6-0.5,0.9-0.9c0.1-0.1,0.1-0.3,0.2-0.4c0.1-0.1,0.1-0.2,0.1-0.3l0.1-0.2
				c0.1-0.3,0.1-0.6,0.1-0.7C49.1,97.4,48.2,97,47,97z M44.8,97.2L44.8,97.2L44.8,97.2C44.8,97.3,44.8,97.3,44.8,97.2z"/>
			<path class="st14" d="M65.9,97c-0.8,0-1.6,0.1-1.9,0.1c-0.1,0-0.1-0.1-0.2-0.1l0,0l0,0l0,0l0,0l0,0l0,0c0,0-0.1,0,0.1-0.2
				c0.1-0.1,0.3-0.3,0.6-0.3h0.2c0.1-0.1,0.1,0,0.2,0c0.1,0.1,0.3,0.3,0.4,0.4C65.4,97,65.7,97,65.9,97c0.3,0,0.5,0,0.5-0.1
				c0.1-0.3,0.3-0.5,0.3-0.8c0-0.2,0.1-0.3,0-0.5c0-0.2-0.1-0.4-0.1-0.5c-0.3-0.6-0.6-0.8-1-1.1c-0.1-0.1-0.3-0.1-0.5-0.1
				c-0.2,0-0.4-0.1-0.7,0l-0.5,0.1c-0.1,0-0.4,0.2-0.6,0.3l-0.6,0.3l-0.6,0.5l-0.3,0.3c-0.1,0.1,0,0.1,0,0.2l0.1,0.2l0.1,0.4
				c0.1,0.1,0.1,0.3,0.1,0.3c0.1,0.1,0.1,0.3,0.1,0.4L62,97.4l-0.3,0.8l-0.1,0.2c0,0.1,0.1,0.1,0.1,0.1l0.3,0.3
				c0.2,0.2,0.4,0.5,0.6,0.6l0.6,0.4l0.4,0.3c0.1,0.1,0.2,0.1,0.3,0.1l0.6,0.2c0.2,0.1,0.3,0,0.5,0c0.1,0,0.3,0,0.4,0
				c0.4-0.1,0.7-0.2,1-0.3c0.3-0.2,0.6-0.5,0.9-0.9c0.1-0.1,0.1-0.3,0.2-0.4c0.1-0.1,0.1-0.2,0.1-0.3l0.1-0.2
				c0.1-0.3,0.1-0.6,0.1-0.7C68,97.4,67.1,97,65.9,97z M63.8,97.2L63.8,97.2L63.8,97.2C63.8,97.3,63.8,97.3,63.8,97.2z M64.8,97.6
				L64.8,97.6L64.8,97.6z"/>
		</g>
	</g>
</g>
<g id="section-3">
</g>
<g id="section-4">
</g>
<g id="footer">
</g>
<g id="logo_1_">
</g>
</svg>
