<?xml version="1.0" encoding="utf-8"?>
<!-- Generator: Adobe Illustrator 19.2.1, SVG Export Plug-In . SVG Version: 6.00 Build 0)  -->
<svg version="1.1" xmlns="http://www.w3.org/2000/svg" xmlns:xlink="http://www.w3.org/1999/xlink" x="0px" y="0px"
	 viewBox="0 0 105 105" style="enable-background:new 0 0 105 105;" xml:space="preserve">
<style type="text/css">
	.st0{display:none;}
	.st1{display:inline;}
	.st2{fill:#774084;}
	.st3{fill:#FFFFFF;}
	.st4{display:none;fill:#F2F2F9;}
	.st5{display:inline;opacity:0.25;}
	.st6{clip-path:url(#SVGID_6_);}
	.st7{opacity:0.6;clip-path:url(#SVGID_6_);fill:#050505;}
	.st8{display:none;clip-path:url(#SVGID_6_);}
	.st9{fill:#C6E0A6;}
	.st10{display:inline;fill:#C6E0A6;}
	.st11{fill:none;stroke:#558B2F;stroke-width:2;stroke-miterlimit:10;}
	.st12{fill:none;stroke:#C6E0A6;stroke-width:3;stroke-miterlimit:10;}
	.st13{fill:none;stroke:#C6E0A6;stroke-width:3;stroke-miterlimit:10;stroke-dasharray:19.6863,19.6863;}
	.st14{fill:#679F42;}
	.st15{opacity:0.7;}
	.st16{fill:none;stroke:#2E7D32;stroke-width:4;stroke-miterlimit:10;}
	.st17{fill:none;stroke:#679F42;stroke-width:2;stroke-miterlimit:10;stroke-dasharray:12,12;}
	.st18{fill:#FF5722;}
	.st19{fill:#3949AB;stroke:#0D47A1;stroke-miterlimit:10;}
	.st20{fill:#F4511E;}
</style>
<g id="extra-stuff" class="st0">
</g>
<g id="main">
</g>
<g id="section-1">
</g>
<g id="section-2">
	<g>
		<g>
			<path class="st14" d="M85.2,97.7c-0.1-0.8-0.1-1.6-0.2-2.3c-0.1-0.4-0.1-0.8-0.1-1.1c0-0.2,0-0.4,0-0.5v-0.6v-2.3l-0.1-9.3
				c-0.1-12.3-0.3-24.6-0.4-36.9c-0.1-6.2-0.2-12.3-0.3-18.4c-0.1-0.7,0.1-1.5,0.1-2.2c0.1-0.8,0.1-1.6,0.1-2.4
				c0-0.4-0.1-0.8-0.1-1.2c-0.1-0.5-0.3-1-0.6-1.4c-0.4-0.4-0.9-0.6-1.3-0.6c-0.5-0.1-0.9-0.1-1.3-0.1c-1.6,0-3.2,0.2-4.6,0.4
				l-4.6,0.1l0,0c-0.1,0-0.1,0-0.2,0c-0.1-1.3-0.1-2.6-0.2-3.8c-0.1-1.6-1-2.8-2.1-2.8c0-0.2-0.1-0.5-0.4-0.5l-2.9-0.3l-0.4-0.1
				c-0.1,0-0.1,0-0.2,0h-0.2h-0.8c-0.1,0-0.2,0-0.4,0c-0.1-0.1-0.1-0.3-0.2-0.4l-1.1-2.3c-0.7-1.6-1.4-3.2-2.7-4.8
				c-1.3-1.6-3.4-2.7-5.4-3L54,0.7c-0.2,0-0.5-0.1-0.7-0.1c-0.5-0.1-1-0.1-1.5,0c-1,0.1-2,0.3-3,0.6c-1.5,0.5-2.9,1.3-4.1,2.4
				c-0.6,0.5-1.1,1.2-1.6,1.8c-0.2,0.4-0.5,0.6-0.6,1L42.1,7c-0.2,0.3-0.2,0.6-0.3,0.8c-0.2,0.9-0.3,1.5-0.4,2.1l-0.1,0.4
				c-0.1,0-0.2,0.1-0.4,0.1c-0.2,0.1-0.5,0.1-0.8,0.1c-0.6,0-1.2,0-1.8,0c-1.2-0.1-2.4,0.8-2.4,1.8l0,0c-0.2,0-0.5,0.2-0.5,0.5l0,0
				c-0.2,1.9-0.6,3.7-0.8,5.7c-0.6-0.2-1.5-0.4-2.5-0.5c-0.6-0.1-1.2-0.2-1.9-0.2c-0.6-0.1-1.3-0.2-2.1-0.4
				c-0.8-0.1-1.6-0.2-2.5-0.3c-0.5,0-0.9-0.1-1.5,0s-1.1,0.1-1.9,0.4l-0.3,0.1c-0.8,0.4-1.3,1.2-1.6,1.9s-0.3,1.4-0.4,1.9
				c0,0.5,0.1,1,0.1,1.4c0,0.4,0.1,0.7,0,1.2v5.2v10.5v21v21v5.2c0,0.7-0.1,1.6-0.2,2.5L19.9,92c-0.1,1.8-0.2,3.6-0.1,5.4
				c0.1,0.9,0.1,1.9,0.4,2.9c0.1,0.5,0.3,1.1,0.5,1.6l0.2,0.5c0.1,0.2,0.2,0.4,0.4,0.5c0.1,0.2,0.3,0.3,0.5,0.5l0.5,0.4
				c0.6,0.2,0.8,0.3,1.2,0.4c0.4,0.1,0.7,0.1,1,0.1c0.6,0.1,1.2,0.1,1.8,0.1c1.1-0.1,2.2-0.1,3.2-0.2c0.8-0.1,1.5-0.2,2.2-0.2h2.3
				h4.6h9.3l18.5-0.1l9.3-0.1h2.3c0.8,0,1.6,0,2.2,0c0.4,0,0.8,0.1,1.2,0.1c0.5,0,1.3-0.1,1.9-0.5c0.6-0.4,1.2-1,1.5-1.5
				c0.1-0.2,0.2-0.5,0.4-0.8c0.1-0.3,0.1-0.5,0.2-0.8C85.3,99.4,85.3,98.5,85.2,97.7z M38.2,14.2c0.7,0.1,1.4,0.1,2.2,0
				c0.4,0,0.8-0.1,1.2-0.1c0.4-0.1,0.9-0.2,1.6-0.5c0.6-0.4,1.1-0.8,1.4-1.3c0.2-0.3,0.2-0.6,0.4-0.9c0.1-0.2,0.1-0.4,0.1-0.6
				c0.1-0.7,0.2-1.4,0.4-1.8c0-0.1,0.1-0.2,0.1-0.1l0.2-0.4c0.1-0.2,0.3-0.5,0.5-0.7c0.3-0.5,0.6-0.8,1.1-1.2
				C48,5.7,48.9,5.2,50,4.8c0.6-0.2,1.3-0.4,2-0.5c0.4-0.1,0.7-0.1,1.1,0h0.5l0.5,0.1c0.7,0.1,1.3,0.2,1.9,0.5
				c0.6,0.3,1.1,0.6,1.6,1.1c1,1,1.8,2.3,2.7,3.8l1.2,2.1c0,0.1,0,0.1,0,0.2c0,0.2,0,0.2,0,0.3c0.1,0.3,0.1,0.4,0.2,0.5
				c0.1,0.2,0.2,0.4,0.4,0.5c0.1,0.1,0.2,0.2,0.4,0.3c0,0,0.1,0.1,0.2,0.1l0.1,0.1c0.1,0,0.2,0.1,0.2,0.1s0.2,0,0.2,0
				c0.1,0,0.3-0.1,0.4-0.1c0.3-0.1,0.4-0.3,0.5-0.5c0.1,0,0.2-0.1,0.4-0.1l0.8-0.1h0.2c0.1,0,0.1,0,0.2,0l0.4-0.1l2.3-0.2
				c-0.5,0.6-0.8,1.5-0.6,2.5c0.1,1.5,0.2,3,0.2,4.5c0,0.7,0,1.4-0.1,2.1c0,0.2-0.1,0.3-0.1,0.5c0,0.1-0.1,0.3-0.1,0.3h-0.1
				c-0.1,0-0.1,0-0.1,0c-0.4,0-0.8,0-1.2,0c-0.9-0.1-1.7-0.1-2.6-0.2c-0.4-0.1-1.1-0.1-1.5-0.1h-1.5h-2.8c-3.6,0-7.1,0.1-10.7,0.1
				l-2.6,0.1c-0.9,0.1-1.7,0-2.8,0.2c-0.9,0.1-1.8,0.2-2.6,0.4C38.8,23,38.4,23,38,23c-0.5,0-0.4,0-0.6,0c-0.2-0.1-0.2-0.2-0.3-0.4
				c-0.1-0.4-0.2-0.8-0.3-1.2c-0.1-0.9-0.2-1.8-0.2-2.8c-0.1-1.7-0.1-3.5-0.1-5.2C36.9,13.8,37.5,14.1,38.2,14.2z M82.6,24
				c-0.1,0.8-0.2,1.5-0.2,2.3c-0.1,6.2-0.2,12.3-0.3,18.4C82,57,81.9,69.3,81.7,81.6l-0.1,9.3v2.3v0.6c0,0.2,0,0.5,0,0.6
				c0,0.4,0.1,0.8,0.1,1.2c0.1,0.8,0.1,1.5,0.2,2.2c0.1,0.7,0,1.4-0.1,1.9c0,0.1-0.1,0.2-0.1,0.4c-0.1,0.1-0.1,0.2-0.1,0.2
				c-0.1,0.1-0.1,0.1-0.1,0.1c-0.1,0,0,0-0.3,0s-0.6,0-1.1-0.1c-0.9-0.1-1.6,0-2.4-0.1h-2.3l-9.3-0.1l-18.5,0.1h-9.3h-4.6h-2.3
				c-0.9,0-1.7,0.1-2.5,0.2c-1.1,0.1-2.1,0.2-3,0.2c-0.5,0-0.9,0-1.3-0.1c-0.2,0-0.4-0.1-0.5-0.1c-0.1,0-0.2-0.1-0.2-0.1l0,0
				c0-0.1-0.1-0.1-0.1-0.1c-0.1-0.2-0.2-0.5-0.2-0.8c-0.1-0.7-0.2-1.5-0.2-2.3c-0.1-1.6,0-3.3,0.1-5l0.2-2.6
				c0.1-0.9,0.2-1.7,0.2-2.8v-5.2v-21V20.9l0,0H24c0.1,0,0.1,0,0.1-0.1c0.1,0,0.3-0.1,0.5-0.1c0.4-0.1,0.7-0.1,1.1-0.1
				c0.8,0,1.5,0.1,2.3,0.1c0.8,0,1.5,0.1,2.3,0c0.7-0.1,1.3-0.1,1.9-0.2c0.9-0.1,1.8-0.3,2.4-0.5c0,0.5-0.1,1-0.1,1.5
				c0,0.5,0.1,1.1,0.2,1.6c0.1,0.4,0.2,0.8,0.4,1.1c0.2,0.4,0.5,0.6,0.8,0.9c0.6,0.4,1.5,0.5,1.9,0.5c0.5,0.1,1,0.1,1.5,0.1
				c0.9,0,1.9-0.1,2.7-0.1c0.7-0.1,1.6,0.1,2.5,0.1l2.6,0.1c3.6,0.1,7.1,0.1,10.7,0.1h2.8h1.3c0.5,0,0.7,0,1.2,0.1
				c0.9,0.1,1.8,0.2,2.8,0.2c0.5,0,1,0.1,1.5,0c0.1,0,0.1,0,0.2,0h0.3c0.2,0,0.5-0.1,0.7-0.1l0.4-0.1l0.3-0.1
				c0.2-0.1,0.4-0.2,0.6-0.3c0.6-0.5,1-1.1,1.2-1.9c0.1-0.4,0.2-0.6,0.2-0.8c0.1-0.2,0.1-0.5,0.1-0.7c0.1-0.9,0.1-1.6,0.1-2.5
				c0.1,0,0.1,0,0.1,0l0,0l4.6,0.1c0.9,0,1.6-0.1,2.3-0.1c0.8-0.1,1.5-0.1,2.2-0.1c0.4,0,0.8,0.1,1,0.1s0.5,0.1,0.6,0.3
				c0.2,0.2,0.2,0.4,0.2,0.7c0.1,0.3,0.1,0.7,0.1,1.1C82.8,22.5,82.7,23.3,82.6,24z"/>
			<path class="st14" d="M51.1,16.8c0.4,0.2,0.8,0,1.1-0.3s0.4-0.8,0.5-1.3c0-0.5-0.1-1-0.1-1.3c-0.1-0.4-0.1-0.5-0.2-0.6
				c-0.4-0.1-0.7-0.5-0.8-1c-0.1-0.5,0.1-0.9,0.4-1.1c0.2-0.2,0.8-0.2,1.1-0.2c0.4,0.1,0.6,0.2,0.9,0.7c0.5,0.9,0.5,2.5-1.2,3.1l0,0
				c-0.1,0.1-0.2,0.3-0.2,0.5c0,0.2,0.1,0.5,0.2,0.5c0.5,0.1,1.1,0.1,1.7-0.1l0.4-0.2c0.1-0.1,0.2-0.2,0.4-0.2
				c0.3-0.2,0.5-0.4,0.7-0.6c0.8-1,1.1-2.3,0.8-3.7c-0.1-0.6-0.4-1.3-0.9-1.9S55,7.9,54.3,7.7c-0.2-0.1-0.4-0.1-0.5-0.2
				c-0.2-0.1-0.4-0.1-0.5-0.1l-0.5-0.1c-0.2,0-0.4,0-0.5,0.1l-0.5,0.1c-0.2,0.1-0.4,0.1-0.5,0.2c-0.2,0.1-0.4,0.1-0.5,0.2
				C50.4,8,50.2,8,50.1,8.1C46.5,10.3,47.4,15.6,51.1,16.8z"/>
			<path class="st14" d="M73.4,33.7l-0.6-0.4L72.1,33c-0.4-0.2-0.9-0.4-1.4-0.5c-1.1-0.3-2.2-0.2-3.1,0.1c-0.5,0.1-0.8,0.2-1.2,0.4
				l-0.2,0.1L66.1,33L65.9,33l-1,0.2l-0.4,0.6l-0.1,0.1l-0.1-0.1l-0.2-0.2c-0.9-0.5-1.3-0.6-2-0.8c-0.6-0.1-1.2-0.2-1.8-0.1
				c-1.2,0.1-2.4,0.5-3.4,1.1c-1.9,1.3-3.1,3.6-3.1,5.7c0,0.4,0.2,0.6,0.5,0.6c0.2,0,0.5-0.2,0.5-0.5c0.4-1.9,1.5-3.5,3.1-4.2
				c0.8-0.4,1.6-0.5,2.5-0.5c0.4,0,0.8,0.1,1.2,0.2c0.4,0.1,0.8,0.4,0.9,0.4v0.1l0,0l0,0l0.1,0.1c0.1,0.1,0.2,0.3,0.4,0.4
				c0.3,0.3,0.8,0.6,1.5,0.6c0.7,0,1.2-0.3,1.6-0.6l0.4-0.4c0.1,0,0.1,0,0.2,0h0.1l0.2-0.1l0.3-0.1c0.4-0.1,0.8-0.2,1.1-0.2
				c0.6-0.1,1.1-0.1,1.6,0.1c0.2,0.1,0.5,0.2,0.8,0.4l0.4,0.2l0.4,0.3c0.5,0.4,0.8,0.8,1.1,1.2c0.2,0.5,0.3,0.9,0.4,1.5
				c0,0.5-0.1,1.1-0.3,1.7c-0.4,1.2-1.2,2.3-2.1,3.2c-0.5,0.4-1.3,1.1-1.9,1.6c-0.6,0.6-1.3,1.1-1.9,1.6c-0.6,0.5-1.3,0.9-1.7,1
				l-0.2,0.1l-0.1-0.1c-0.2-0.1-0.5-0.2-0.7-0.4c-1.4-0.6-2.8-1.5-4-2.5s-2.3-2.1-3-3.3c-0.3-0.6-0.6-0.9-1.1-1.3
				c-0.4-0.3-0.9-0.6-1.4-0.6c-0.5,0-1,0.4-1.2,1.1c-0.2,0.7-0.1,1.8,0.4,2.6c1.1,1.8,2.5,3.2,3.9,4.4c1.5,1.2,3,2.2,4.8,3
				c0.2,0.1,0.4,0.2,0.5,0.2c0.2,0.2,0.6,0.5,1.1,0.6c0.4,0.1,0.8,0.1,1.2,0c0.2-0.1,0.4-0.1,0.6-0.2l0.4-0.1c1.2-0.4,2-1,2.8-1.6
				c0.8-0.6,1.5-1.2,2.1-1.8l0.9-0.8l0.2-0.2l0.3-0.2c0.2-0.2,0.4-0.4,0.6-0.5c1.3-1.3,2.4-2.9,3-4.7c0.3-0.9,0.4-1.9,0.4-3
				c-0.1-1.1-0.4-2.1-0.9-3C74.9,35,74.2,34.2,73.4,33.7z"/>
			<path class="st14" d="M31.4,36h5.3c2.9,0,5.8-0.5,8.7-1.4c0.2-0.1,0.2-0.9,0-0.9c-2.9-0.9-5.8-1.4-8.7-1.4h-5.3
				c-0.4,0-0.8,0.8-0.8,1.9C30.7,35.2,31,36,31.4,36z"/>
			<path class="st14" d="M31.4,44.6h5.3c2.9,0,5.8-0.5,8.7-1.4c0.2-0.1,0.2-0.9,0-0.9c-2.9-0.9-5.7-1.4-8.7-1.4h-5.3
				c-0.4,0-0.8,0.8-0.8,1.9C30.7,43.7,31,44.6,31.4,44.6z"/>
			<path class="st14" d="M31.4,53.2h5.3c2.9,0,5.8-0.5,8.7-1.4c0.2-0.1,0.2-0.9,0-0.9c-2.9-0.9-5.8-1.4-8.7-1.4h-5.3
				c-0.4,0-0.8,0.8-0.8,1.9C30.7,52.3,31,53.2,31.4,53.2z"/>
			<path class="st14" d="M73.9,75.9L73.9,75.9l-5.7-0.4c-1-0.1-1.8-0.1-2.8-0.2c-0.9-0.1-1.9-0.2-2.9-0.3c-1-0.1-2-0.1-3.1,0.1
				c-0.1,0-0.3,0.1-0.4,0.1c-0.2,0.1-0.3,0.1-0.5,0.1c-0.3,0.1-0.7,0.3-0.9,0.5c-0.5,0.4-0.9,0.8-1.3,1.2c-1.4,1.7-2.2,3.5-2.9,5.3
				L53,83.7l-0.2,0.6l-0.1,0.1c-0.1,0.1-0.1,0.2-0.2,0.2c0,0-0.1,0.1-0.1,0l-0.1-0.2c0-0.1-0.1-0.2-0.1-0.2l-2.1-5l-2.2-5.2
				l-6.5-15.2L37,69.2l-1.4,3.3l-0.2,0.4c-0.1,0.2-0.1,0.4-0.2,0.5L35,74.3l-0.1,0.4c0,0.1-0.1,0.2-0.1,0.2l0,0l0,0l0,0l0,0
				c0,0-0.1,0-0.3,0c-0.9,0-1.9,0.1-2.6,0.4c-0.8,0.2-1.3,0.7-1.3,1.2s0.4,1,1.1,1.4c0.7,0.4,1.6,0.8,3,0.8c0.3,0,0.5,0,1.1-0.1
				c0.5-0.1,0.9-0.2,1.2-0.5c0.5-0.4,0.9-0.8,1.2-1.3c0.2-0.3,0.2-0.4,0.3-0.6l0.2-0.5l0.3-0.9l0.1-0.3l0.2-0.4l1.4-3.3l1.1-2.5
				l3,7.2l2.2,5.2l2.4,5.4l1.1,2.5l0.5,1.2l0.5,1.1l1.1,2.2c0.2,0.7,0.4-0.2,0.5-0.5l0.5-1.2l0.9-2.3c0.3-0.8,0.6-1.6,0.8-2.5
				l1.1-3.3c0.6-1.7,1.2-3.5,2.2-4.7c0.2-0.3,0.5-0.6,0.7-0.8c0.1-0.1,0.2-0.1,0.4-0.2c0.1-0.1,0.1-0.1,0.2-0.1
				c0.1-0.1,0.2-0.1,0.2-0.1c0.8-0.2,1.6-0.2,2.6-0.2c0.9,0,1.9,0,2.8,0.1c0.9,0.1,2,0,2.9-0.1l5.7-0.4l0,0
				C74.9,76.9,74.9,76,73.9,75.9z"/>
		</g>
	</g>
</g>
<g id="section-3">
</g>
<g id="section-4">
</g>
<g id="footer">
</g>
<g id="logo_1_">
</g>
</svg>
