<?xml version="1.0" encoding="utf-8"?>
<!-- Generator: Adobe Illustrator 19.2.1, SVG Export Plug-In . SVG Version: 6.00 Build 0)  -->
<svg version="1.1" xmlns="http://www.w3.org/2000/svg" xmlns:xlink="http://www.w3.org/1999/xlink" x="0px" y="0px"
	 viewBox="0 0 56 64" style="enable-background:new 0 0 56 64;" xml:space="preserve">
<style type="text/css">
	.st0{display:none;}
	.st1{display:inline;}
	.st2{fill:#774084;}
	.st3{fill:#FFFFFF;}
	.st4{display:none;fill:#F2F2F9;}
	.st5{display:inline;opacity:0.25;}
	.st6{clip-path:url(#SVGID_6_);}
	.st7{opacity:0.6;clip-path:url(#SVGID_6_);fill:#050505;}
	.st8{display:none;clip-path:url(#SVGID_6_);}
	.st9{fill:#C6E0A6;}
	.st10{display:inline;fill:#C6E0A6;}
	.st11{fill:none;stroke:#558B2F;stroke-width:2;stroke-miterlimit:10;}
	.st12{fill:none;stroke:#C6E0A6;stroke-width:3;stroke-miterlimit:10;}
	.st13{fill:none;stroke:#C6E0A6;stroke-width:3;stroke-miterlimit:10;stroke-dasharray:19.6863,19.6863;}
	.st14{fill:#679F42;}
	.st15{opacity:0.7;}
	.st16{fill:none;stroke:#2E7D32;stroke-width:4;stroke-miterlimit:10;}
	.st17{fill:none;stroke:#679F42;stroke-width:2;stroke-miterlimit:10;stroke-dasharray:12,12;}
	.st18{fill:#FF5722;}
	.st19{fill:#3949AB;stroke:#0D47A1;stroke-miterlimit:10;}
	.st20{fill:#84280F;}
</style>
<g id="extra-stuff" class="st0">
</g>
<g id="main">
</g>
<g id="section-1">
</g>
<g id="section-2">
</g>
<g id="section-3">
</g>
<g id="section-4">
</g>
<g id="footer">
	<g>
		<path class="st18" d="M15.2,39.8h3.7v18.5c0,2.1,1.7,3.9,3.9,3.9H30c2.1,0,3.9-1.7,3.9-3.9c0,0,0,0,0,0V39.8h3.7
			c1.6-0.2,3-1.2,3.6-2.7l2.5-5c0-0.1,0-0.2,0-0.3c0.3-1.1,0.1-2.3-0.6-3.2c-0.7-0.9-1.9-1.5-3-1.5h-6.2V20h6.2
			c2.1,0,3.9-1.7,3.9-3.8V9.9c0-2.1-1.7-3.9-3.9-3.9h-7.6C23.4,6.1,19,11.8,19,23.6v3.6h-3.8c-2.1,0-3.9,1.7-3.9,3.9v5
			C11.3,38.1,13.1,39.8,15.2,39.8z M14.1,31c0-0.6,0.5-1.1,1.1-1.1h5c0.8,0,1.4-0.6,1.4-1.4v-5c0-10.4,3.3-14.8,10.9-14.8H40
			c0.6,0,1.1,0.5,1.1,1.1v6.2c0,0.6-0.5,1.1-1.1,1.1h-7.5c-0.8,0-1.4,0.6-1.4,1.4v10c0,0.8,0.6,1.4,1.4,1.4h7.5
			c0.4,0,0.7,0.2,0.9,0.4c0.2,0.2,0.3,0.5,0.2,0.8l-2.4,4.8c-0.4,0.8-1,1.2-1.3,1.2h-5c-0.8,0-1.4,0.6-1.4,1.4v19.9
			c0,0.6-0.5,1.1-1.2,1.1c0,0,0,0,0,0h-7.3c-0.6,0-1.1-0.5-1.1-1.1v-20c0-0.8-0.6-1.4-1.4-1.4h-5.1c-0.6,0-1.1-0.5-1.1-1.1V31z"/>
	</g>
</g>
<g id="logo_1_">
</g>
</svg>
