<?xml version="1.0" encoding="utf-8"?>
<!-- Generator: Adobe Illustrator 19.2.1, SVG Export Plug-In . SVG Version: 6.00 Build 0)  -->
<svg version="1.1" xmlns="http://www.w3.org/2000/svg" xmlns:xlink="http://www.w3.org/1999/xlink" x="0px" y="0px"
	 viewBox="0 0 46.3 41.3" style="enable-background:new 0 0 46.3 41.3;" xml:space="preserve">
<style type="text/css">
	.st0{display:none;}
	.st1{display:inline;}
	.st2{fill:#774084;}
	.st3{fill:#FFFFFF;}
	.st4{display:none;fill:#F2F2F9;}
	.st5{display:inline;opacity:0.25;}
	.st6{clip-path:url(#SVGID_6_);}
	.st7{opacity:0.6;clip-path:url(#SVGID_6_);fill:#050505;}
	.st8{display:none;clip-path:url(#SVGID_6_);}
	.st9{fill:#C6E0A6;}
	.st10{display:inline;fill:#C6E0A6;}
	.st11{fill:none;stroke:#558B2F;stroke-width:2;stroke-miterlimit:10;}
	.st12{fill:none;stroke:#C6E0A6;stroke-width:3;stroke-miterlimit:10;}
	.st13{fill:none;stroke:#C6E0A6;stroke-width:3;stroke-miterlimit:10;stroke-dasharray:19.6863,19.6863;}
	.st14{fill:#679F42;}
	.st15{fill:#558B2F;}
	.st16{opacity:0.7;}
	.st17{fill:none;stroke:#2E7D32;stroke-width:4;stroke-miterlimit:10;}
	.st18{fill:none;stroke:#679F42;stroke-width:2;stroke-miterlimit:10;stroke-dasharray:12,12;}
	.st19{fill:#FF5722;}
	.st20{fill:#3949AB;stroke:#0D47A1;stroke-miterlimit:10;}
	.st21{fill:#F4511E;}
</style>
<g id="extra-stuff" class="st0">
</g>
<g id="main">
</g>
<g id="section-1">
</g>
<g id="section-2">
</g>
<g id="section-3">
</g>
<g id="section-4">
</g>
<g id="footer">
</g>
<g id="logo_1_">
	<g id="logo_2_">
		<path id="question_2_" class="st9" d="M24.2,31.8c-1.5-4.9,0-10,1.9-11.7c7.4-6.8,7.9-9.6,7.9-10.9c0-1.5,0.9-7.2-8.3-7.2
			S15.7,9.3,15.7,9.3c3.4-4.7,5.8-5.5,9.6-5c4.8,0.6,5.7,4.7,5,6.7c-1.2,3.9-3.8,5-5.7,7.3c-2,2.4-2.5,6.7-1.9,10.2
			C23.4,31.7,24.2,31.8,24.2,31.8z"/>
		<g id="hat_1_">
			<g>
				<path class="st3" d="M35.5,14.1c0,0,0.4-0.3,1.3-0.6c0.9-0.3,2.3-0.4,4,0.2c0.8,0.3,1.6,0.8,2.3,1.5c0.3,0.2,0.7,0.7,1,1.2
					c0.3,0.5,0.6,1,0.8,1.6c0.4,1.2,0.3,2.6-0.1,3.7c-0.4,1.2-1.1,2.2-1.8,3c-0.3,0.4-0.8,0.8-1.2,1.2c-0.5,0.4-1,0.7-1.5,1
					c-1,0.5-1.9,0.9-2.8,1.2c-0.4,0.2-0.9,0.3-1.3,0.5l-0.3,0.1l-0.2,0.1l-0.1,0l0,0l0,0c0,0-0.1,0.1,0.1-0.1l0,0
					c-0.2,0.1-0.5,0.2-0.5,0.3c-0.1,0.1-0.4,0.3-0.6,0.5c-0.2,0.2-0.4,0.5-0.6,0.8c-0.6,1.2-1,2.4-1.2,3.3c-0.2,0.9-0.3,1.4-0.3,1.4
					s-0.2-0.5-0.3-1.4c0-0.5-0.1-1-0.1-1.7c0-0.6,0.1-1.4,0.3-2.2c0.1-0.4,0.3-0.8,0.5-1.3c0.2-0.4,0.5-0.9,1.1-1.3
					c0.2-0.2,0.4-0.3,0.6-0.4c0.2-0.1,0.5-0.3,0.7-0.4c0.4-0.2,0.8-0.4,1.2-0.7c0.8-0.4,1.7-0.9,2.5-1.3c0.8-0.5,1.2-0.9,1.9-1.6
					c0.6-0.7,1.1-1.4,1.4-2.1c0.3-0.7,0.4-1.4,0.3-2c-0.1-0.3-0.2-0.7-0.3-1c-0.2-0.3-0.3-0.6-0.6-0.9c-0.4-0.6-0.9-1.1-1.5-1.5
					c-1.1-0.8-2.3-1.1-3.1-1.1C36,14.1,35.5,14.1,35.5,14.1z"/>
			</g>
			<g>
				<path class="st3" d="M16.5,35.1c0,0-0.3-0.7-0.8-1.8c-0.3-0.6-0.6-1.2-1-2c-0.4-0.8-0.8-1.6-1.4-2.4c-0.3-0.4-0.6-0.8-0.9-1.1
					c-0.3-0.3-0.7-0.5-1.2-0.8c-1-0.4-2.2-0.7-3.5-1.3c-0.7-0.3-1.4-0.6-2-1c-0.3-0.2-0.7-0.5-1-0.7c-0.2-0.1-0.3-0.3-0.4-0.4
					c-0.2-0.2-0.3-0.3-0.4-0.5C2.8,22,2,20.6,1.5,19C1,17.4,1,15.6,1.6,14c0.3-0.8,0.7-1.5,1.1-2.2c0.5-0.7,1-1.2,1.6-1.7l0.4-0.3
					l0.5-0.4c0.3-0.2,0.7-0.4,1-0.5C7,8.5,7.7,8.4,8.4,8.3c1.4-0.2,2.6,0,3.7,0.3c2.2,0.6,3.8,1.5,4.9,2.1c1.1,0.7,1.6,1.2,1.6,1.2
					s-0.7-0.3-1.9-0.6c-1.2-0.3-2.9-0.8-4.9-1c-1-0.1-2.1,0-3.1,0.2c-0.5,0.1-1,0.3-1.4,0.6c-0.2,0.1-0.4,0.3-0.6,0.4l-0.3,0.2
					L6.1,12c-0.3,0.4-0.7,0.9-1,1.3c-0.3,0.5-0.5,1-0.7,1.5C4,15.9,4,17,4.4,18.2c0.3,1.1,0.9,2.2,1.7,3.1c0.7,0.9,1.6,1.5,2.7,2.1
					c1.1,0.5,2.4,1,3.5,1.7c0.6,0.4,1.1,0.8,1.6,1.4c0.4,0.6,0.7,1.1,0.9,1.6c0.5,1,0.7,2,1,2.9c0.2,0.9,0.4,1.6,0.5,2.2
					C16.5,34.4,16.5,35.1,16.5,35.1z"/>
			</g>
			<g>
				<path class="st9" d="M24.2,32.2c0,0-0.1-0.2-0.2-0.6c-0.2-0.4-0.4-0.9-0.5-1.6c-0.2-0.7-0.3-1.6-0.4-2.7c0-1.1,0-2.3,0.3-3.6
					c0.3-1.3,0.7-2.7,2-4.1c1-1,2-2.1,3-3.2c1-1.1,2-2.4,2.8-3.6c0.4-0.6,0.8-1.3,1-1.9c0.1-0.3,0.2-0.6,0.3-0.9
					c0-0.2,0.1-0.3,0.1-0.5l0-0.1l0,0c0,0.1,0,0,0,0.1l0,0l0-0.2c0-0.1,0-0.2,0-0.3c0-0.2,0-0.6-0.1-0.9c0-0.3-0.1-0.6-0.2-1
					C32,6.5,31.7,6,31.3,5.5c-0.8-1-1.9-1.7-3.2-2.1c-0.3-0.1-0.7-0.2-1-0.2c-0.3-0.1-0.7-0.1-1-0.1l-0.5-0.1l-0.1,0l-0.1,0l0,0.2
					c0,0,0.1,0.2,0.1,0.2h0h-0.3c-0.4,0-0.7-0.2-1.1-0.2c-1.2,0.1-2.4,0.2-3.5,0.7c-1,0.5-1.9,1.1-2.5,1.7c-0.7,0.7-1.2,1.4-1.5,2
					c-0.4,0.6-0.6,1.1-0.7,1.5c-0.1,0.4-0.2,0.6-0.2,0.6s0-0.2,0-0.6c0-0.4,0.1-1,0.3-1.7c0.2-0.7,0.5-1.6,1.2-2.5
					c0.6-0.9,1.5-1.8,2.6-2.6c1.2-0.7,2.6-1.2,4.2-1.5c0.4,0,0.7-0.1,1.1-0.1l0.3,0l0-0.1l0.1-0.1h0.1h0.2h0.6h0.6l0.6,0.2
					c0.4,0,0.8,0.1,1.3,0.3c1.7,0.4,3.6,1.3,4.8,2.8c0.6,0.8,1.2,1.6,1.5,2.6c0.2,0.5,0.3,1,0.4,1.4c0.1,0.5,0.1,1,0.1,1.6
					c0,0.1,0,0.2,0,0.3l0,0.2l0,0.2c0,0.2-0.1,0.5-0.1,0.7c-0.1,0.5-0.3,1-0.4,1.4c-0.4,0.9-0.8,1.7-1.3,2.4c-1,1.5-2.2,2.7-3.3,3.8
					c-1.1,1.2-2.3,2.1-3.4,3.1c-0.4,0.3-0.8,0.8-1.1,1.3c-0.3,0.5-0.6,1.1-0.8,1.6c-0.4,1.1-0.7,2.2-0.8,3.1c-0.1,1-0.2,1.8-0.2,2.5
					c0,0.7,0.1,1.3,0.1,1.7C24.2,32,24.2,32.2,24.2,32.2z"/>
			</g>
			<g>
				<path class="st9" d="M17.4,36.9c0,0,0.2,0.2,0.6,0.4c0.4,0.2,1,0.5,1.6,0.7c0.3,0.1,0.7,0.2,1.1,0.3c0.4,0.1,0.8,0.1,1.3,0.2
					c0.4,0,0.9,0.1,1.4,0.1c0.5,0,1,0,1.4,0c0.5,0,1-0.1,1.5-0.1c0.5-0.1,0.9-0.1,1.4-0.2c0.9-0.1,1.7-0.3,2.4-0.5
					c0.7-0.2,1.3-0.4,1.7-0.6c0.4-0.2,0.6-0.3,0.6-0.3S32.3,37,32,37.3c-0.3,0.4-0.8,0.9-1.4,1.3c-0.3,0.2-0.7,0.5-1.1,0.7
					c-0.4,0.2-0.9,0.4-1.4,0.5c-0.5,0.2-1,0.3-1.5,0.4c-0.6,0.1-1.1,0.1-1.6,0.2c-0.6,0-1.1,0-1.6,0c-0.5,0-1.1-0.2-1.6-0.3
					c-0.5-0.1-1-0.3-1.4-0.5c-0.4-0.2-0.8-0.4-1.2-0.7c-0.7-0.5-1.2-1-1.4-1.4C17.4,37.1,17.4,36.9,17.4,36.9z"/>
			</g>
		</g>
	</g>
</g>
</svg>
