<?xml version="1.0" encoding="utf-8"?>
<!-- Generator: Adobe Illustrator 19.2.1, SVG Export Plug-In . SVG Version: 6.00 Build 0)  -->
<svg version="1.1" xmlns="http://www.w3.org/2000/svg" xmlns:xlink="http://www.w3.org/1999/xlink" x="0px" y="0px"
	 viewBox="0 0 888 509" style="enable-background:new 0 0 888 509;" xml:space="preserve">
	<defs>
		<style type="text/css">@import url('https://fonts.googleapis.com/css?family=Raleway:200&amp;subset=latin-ex')</style>
    <!--@font-face {-->
        <!--font-family: Raleway;-->
        <!--src: url('https://fonts.googleapis.com/css?family=Raleway:200&amp;subset=latin-ex');-->
    <!--}-->
	</defs>
<style type="text/css">
	.st0{display:none;}
	.st1{display:inline;}
	.st2{fill:#774084;}
	.st3{fill:#FFFFFF;}
	.st4{display:none;fill:#F2F2F9;}
	.st5{display:inline;opacity:0.25;}
	.st6{clip-path:url(#SVGID_6_);}
	.st7{opacity:0.6;clip-path:url(#SVGID_6_);fill:#050505;}
	.st8{display:none;clip-path:url(#SVGID_6_);}
	.st9{fill:#C6E0A6;}
	.st10{display:inline;fill:#C6E0A6;}
	.st11{fill:none;stroke:#558B2F;stroke-width:2;stroke-miterlimit:10;}
	.st12{fill:none;stroke:#C6E0A6;stroke-width:3;stroke-miterlimit:10;}
	.st13{fill:none;stroke:#C6E0A6;stroke-width:3;stroke-miterlimit:10;stroke-dasharray:19.6863,19.6863;}
	.st14{font-family:'Arial-BoldMT';}
	.st15{font-size:5px;}
	.st16{fill:#679F42;}
	.st17{opacity:0.7;}
	.st18{fill:none;stroke:#2E7D32;stroke-width:4;stroke-miterlimit:10;}
	.st19{fill:none;stroke:#679F42;stroke-width:2;stroke-miterlimit:10;stroke-dasharray:12,12;}
	.st20{fill:#282828;}
	.st21{font-family:'Raleway-Regular';}
	.st22{font-size:28px;}
	.st23{fill:#FF5722;}
	.st24{fill:#3949AB;stroke:#0D47A1;stroke-miterlimit:10;}
	.st25{fill:#F4511E;}
</style>
<g id="extra-stuff" class="st0">
</g>
<g id="main">
</g>
<g id="section-1">
</g>
<g id="section-2">
	<g id="handmade-icons" class="st0">
		<g class="st1">
			<g>
				<path d="M926.3,540.2c-1.9-6.6-5.3-12.9-10-18.1c-5.4-5.9-12.1-10.5-19.3-13.7c1.8-1.3,3.4-2.7,5-4.3c2.7-2.9,4.9-6.1,6.6-9.7
					c0.4-0.9,0.7-1.8,1.1-2.7l0.5-1.4c0.1-0.5,0.3-0.9,0.4-1.4l0.8-2.8c0.2-0.9,0.3-1.9,0.5-2.9c0.4-1.8,0-3.5-0.6-4.7
					c-0.1-0.1-0.1-0.2-0.2-0.4c0.2-0.2,0.3-0.4,0.4-0.6c0.3-0.5,0.5-1,0.7-1.6c0.1-0.3,0.2-0.6,0.2-0.9l0.1-0.8
					c0.1-0.7,0.2-1.4,0.2-2.1c0.2-2.7,0-5.3-0.3-7.9c-0.3-2.4-1.1-4.6-2.2-6.1c-0.4-0.6-0.9-1.1-1.5-1.4c0.5,0.1,0.9-0.1,1-0.3l0,0
					c1.6-7.2,2.4-14.5,2.4-21.7v-6.6c0,0,0.3,0.1,0.4,0.1c1.6,0.4,4.2,0.3,6.7-1.3c1.3-0.8,2.4-2,3.3-3.3c0.9-1.4,1.4-2.9,1.6-4.4
					c0.5-3-0.1-5.9-1.2-8.4c-2.2-5-6.5-8.9-11.8-10.4c-0.7-0.2-1.3-0.3-2-0.4c-0.7-0.1-1.4-0.2-1.9-0.2c-1.1-0.1-2.3-0.2-3.4-0.2
					c-2.3-0.1-4.6-0.2-6.8-0.2c-4.5,0-9,0.1-13.5,0.2l-10.9,0.3c-3.6,0.1-7.2,0-10.8,0c-7.3-0.1-14.6-0.4-22.1,0.1
					c-1.9,0.1-3.7,0.3-5.6,0.5l-2.7,0.4c-0.9,0.1-1.8,0.2-2.8,0.4c-1.9,0.3-4.2,0.9-6,2.3c-1.9,1.3-3.1,3-4.1,5
					c-1.9,3.9-1.4,8.7,0.6,12.1c2,3.5,5.8,6.4,9.7,6.4l0,0c0.2,0,0.4,0,0.5,0c-0.8,5-1.3,9.9-1.3,14.9v13.3c0,0.7,0.7,1.3,1.7,1.6
					l-0.2,0.3c-0.3,0.4-0.3,0.7-0.5,1c-0.1,0.3-0.3,0.6-0.3,0.9c-0.4,1.2-0.6,2.4-0.8,3.5c-0.3,2.3-0.4,4.5-0.3,6.8
					c0.2,2.3,0.4,4.5,1.4,7.1c0.1,0.3,0.3,0.7,0.5,1.1l0.4,0.6c0.2,0.2,0.3,0.4,0.5,0.6l0.1,0.1c-0.2,5.7,0.8,11.5,3.3,16.9
					c1.2,2.8,3,5.4,5,7.8c1,1.1,2.1,2.3,3.3,3.3c1.2,1,2.4,2.1,3.7,2.9c0.1,0,0.1,0.1,0.2,0.1c-5.7,1.5-11.3,4.1-16.2,7.7
					c-5.6,4.1-10.3,9.5-13.5,15.7c-4,7.6-6,16-6.4,24.3c-0.1,2,1.4,3.6,3.2,3.6c1.8,0,3.3-1.5,3.4-3.3c0.4-7.6,2.2-15,5.6-21.6
					c5.5-10.7,14.7-19.3,26-25.1c10,5.8,22.3,7.2,33.6,4.4c3.1-0.8,6.2-2,9.1-3.4c0.3,0.9,1,1.6,1.9,1.9c7,2.8,13.3,7.1,18.3,12.6
					c4.1,4.5,7.4,9.7,9.9,15.4c2.5,5.7,4,11.9,4.9,18.3l0,0c0.1,0.8,1.6,0.9,1.7,0C928.6,553.7,928.2,546.8,926.3,540.2z M829,425
					L829,425c-3.3-0.6-6.1-3-7.4-5.9c-1.3-2.9-1.3-6.4,0.3-8.9c0.4-0.6,0.8-1.2,1.4-1.8c0.5-0.5,1.1-1,1.7-1.4
					c1.2-0.7,2.6-1,4.2-1.2c0.8-0.1,1.7-0.1,2.6-0.2l2.7-0.2c1.8-0.1,3.5-0.2,5.3-0.2c7.1-0.1,14.3,0.5,21.7,0.8
					c3.7,0.2,7.4,0.3,11.1,0.3c3.7,0,7.4-0.1,11-0.2c4.4-0.1,8.9-0.2,13.2-0.2c2.2,0,4.4,0.1,6.5,0.2c1.1,0.1,2.2,0.1,3.2,0.2
					c0.6,0,0.9,0.1,1.4,0.2c0.4,0.1,0.8,0.2,1.3,0.3c3.3,0.9,6.2,3.5,7.6,6.7c0.7,1.6,1,3.3,0.7,4.7c-0.2,1.4-0.9,2.5-2.1,3.2
					c-1,0.7-2.3,1.3-3.3,2v-1.9c0-1.1-1.7-1.9-3.5-1.9s-3.5,0.9-3.5,1.9v13.3c0,7.3,1,14.5,3,21.7l0,0c0,0,0,0,0,0.1
					c-1-0.2-1.1-0.1-1.3,0.3c-0.4,0.8-0.9,1.4-1.1,2.9c-0.2,1.4-0.1,3.3,0.1,5.4c0.3,2.2,0.6,4.5,0.4,6.6c0,0.5,0,1,0,1.5V473h-0.5
					H891h-29h-6.3c-0.9,0-2.3,0.2-3.4,0.3l-3.2,0.4c-4.1,0.4-8.3,0.9-11.9,0.7c-0.4,0-0.9-0.1-1.3-0.1c-0.2,0-0.4-0.1-0.6-0.1
					c-0.1,0-0.1-0.1-0.2-0.1c-0.2,0,0,0,0-0.1c0,0,0,0,0-0.1c0-0.1-0.3-0.1-0.4-0.3c-0.6-1.2-1-3.2-1.2-5.1s-0.2-3.8,0-5.7
					c0.1-0.9,0.2-1.8,0.4-2.6c0-0.2,0.1-0.4,0.2-0.5s0.1-0.4,0.1-0.4c0-0.1,0.1-0.2,0.2-0.3c0.1-0.1,0.2-0.1,0.3-0.1
					c0.2-0.1,0.7-0.1,1.1-0.2c0.9-0.1,1.8-0.2,2.7-0.3c1.8-0.1,3.7-0.2,5.5-0.3c3.7-0.1,7.5-0.2,11.2-0.3c7.5-0.1,15-0.2,22.5-0.3
					l0,0c2.1-0.1,2.1-1.5,0.1-1.7c-7.5-0.7-15-1.3-22.5-1.7c-3.8-0.2-7.5-0.4-11.3-0.5c-1.9-0.1-3.8,0.1-5.7,0.1c-1,0-1.9,0.3-3,0.3
					c-0.2,0-0.2,0-0.2,0v-12.3c0-7.3-1-14.5-2.7-21.7c-0.1-0.5-1.7-0.5-1.8,0c-0.4,1.7-0.8,3.5-1.1,5.2
					C829.4,425.1,829.3,425.1,829,425z M880.4,509c-10.4,2.6-22.1,1.4-31.4-4.1c-4.7-2.7-8.7-6.6-11.5-11.3
					c-2.5-4.1-4.1-8.8-4.8-13.8c0.1,0.1,0.2,0.1,0.3,0.1l1.1,0.3c0.3,0.1,0.6,0.1,1,0.2c0.7,0.1,1.2,0.2,1.8,0.2
					c4.7,0.3,8.9-0.1,13-0.5l3.1-0.1c1-0.1,1.7,0.1,2.9,0.1h6.3h29h14.5h0.1c-0.2,0-0.4,1.3-0.6,2.1l-0.4,2.3l-0.6,2.3
					c-0.1,0.4-0.2,0.8-0.3,1.2l-0.4,1.1c-0.3,0.7-0.6,1.5-0.9,2.2c-1.4,2.9-3.2,5.5-5.4,7.9c-2.3,2.3-4.8,4.3-7.6,5.9
					C886.6,506.9,883.6,508.1,880.4,509z"/>
			</g>
		</g>
		<g class="st1">
			<g>
				<path d="M880.3,260.9c-1-0.2-2.2-0.4-3.3-0.3c-1.2,0.1-2.3,0.4-3.2,0.7c-1,0.3-1.8,0.7-2.5,1.1l-1.1,0.5l-0.4,0.2l-0.6,0.2
					c-0.4,0.1-0.2,0.2-1.2,0.4v0.1c-2-1.3-4.1-2-6.4-2.2c-2.7-0.2-5.4,0.4-7.7,1.7c-4.7,2.6-7.3,7.7-7.4,12.6c0,0.9,0.4,1.3,0.8,1.3
					c0.4,0,0.8-0.4,0.9-1.1l0,0c0.7-4.3,3.5-8.2,7.3-9.7c1.8-0.8,3.9-1,5.8-0.7c1.8,0.3,3.6,1.2,4.8,2.3c0.2,0.3,0.5,0.6,1,0.9
					c0.3,0.2,0.8,0.4,1.4,0.4c0.6,0.1,1.1-0.1,1.5-0.3c0.4-0.2,0.7-0.4,0.9-0.6c0.2-0.2,0.4-0.3,0.5-0.4l0.1,0c0,0,0.1,0,0.2,0h0.1
					c0,0,0-0.1,0.2-0.2c0.5-0.1,0.9-0.3,1.3-0.4c0.9-0.3,1.6-0.6,2.3-0.8c1.4-0.4,2.4-0.4,3.7,0c2.5,0.7,4.7,2.5,6,5
					c1.3,2.4,1.7,5.3,1.1,7.8c-0.6,2.5-2.3,4.6-4.7,6.6c-0.6,0.5-1.3,1.1-2,1.6l-2.3,1.7l-4.4,3.3c-1.4,1.1-2.9,2.1-4.3,3l-0.1,0.1
					l-1.1-0.8c-3.2-2.3-6.3-4.1-9.1-6.2c-2.8-2.1-5.3-4.3-6.6-6.9c-0.7-1.2-1.3-2.2-2.1-3c-0.7-0.8-1.5-1.5-2.4-1.5l0,0
					c-0.9,0-1.7,0.7-2.1,2.2c-0.3,1.4-0.2,3.6,0.9,5.4c2.2,4,5.4,6.7,8.5,9c3.1,2.3,6.3,4.3,9.1,6.3l1.2,0.9
					c0.6,0.5,1.5,1.1,2.3,1.3s1.7,0.3,2.6,0c0.4-0.1,0.8-0.3,1.2-0.5l0.6-0.3l0.5-0.3c1.8-1.1,3.3-2.2,4.8-3.3l4.4-3.4l2.2-1.6
					c0.8-0.6,1.6-1.2,2.3-1.8c1.5-1.2,2.9-2.6,4.2-4.3c1.2-1.7,2.2-3.8,2.6-5.9c0.9-4.2,0.1-8.7-2-12.3
					C888.2,264.6,884.5,261.8,880.3,260.9z"/>
				<path d="M926.4,281.3c-0.9,0-1.7,2.1-2.6,5.3c-0.9,3.2-2,7.5-3.5,12.1c-3.2,9.8-9.2,18.6-17,25.3c-7.8,6.7-17.5,11.1-27.7,12.3
					c-10.2,1.3-20.7-0.4-30-4.7c-9.3-4.3-17.4-11.3-22.9-19.9c-9.2-14.2-11.4-32.6-6.1-48.6c1.3-4,3.2-7.8,5.3-11.5
					c2.2-3.6,4.9-6.9,7.8-10c6-6,13.3-10.7,21.3-13.5c8-2.8,16.7-3.8,25.2-2.7l3.2,0.5l3.1,0.7l1.6,0.4l1.5,0.5l3,1l3,1.3l1.5,0.6
					c0.5,0.2,0.9,0.5,1.4,0.8l2.8,1.5l2.7,1.8l1.3,0.9c0.4,0.3,0.8,0.7,1.3,1l2.5,2l2.4,2.2l1.2,1.1l1.1,1.2l2.2,2.4l2,2.6l1,1.3
					l0.9,1.4l1.8,2.7l1.5,2.9l0.8,1.4l0.6,1.5l1.3,3l1,3.1l0.5,1.6l0.4,1.6l0.8,3.2l0.5,3.2l0.3,1.6l0.1,1.6l0,0
					C925.5,280.1,926,281.3,926.4,281.3c0.3,0,0.6-1.2,0.6-3.5l0,0v-1.7l-0.1-1.7l-0.4-3.4l-0.7-3.3l-0.3-1.7l-0.5-1.6l-1-3.3
					l-1.2-3.2l-0.6-1.6l-0.7-1.5l-1.5-3.1l-1.7-2.9l-0.9-1.5l-1-1.4l-2-2.8l-2.2-2.6l-1.1-1.3l-1.2-1.2l-2.4-2.4l-2.6-2.2
					c-0.4-0.4-0.9-0.7-1.3-1.1l-1.4-1c-0.9-0.7-1.9-1.3-2.8-2l-3-1.7c-0.5-0.3-1-0.6-1.5-0.9l-1.6-0.7l-3.1-1.5l-3.3-1.2l-1.6-0.6
					l-1.7-0.4l-3.4-0.9l-3.4-0.6c-9.2-1.4-18.7-0.6-27.5,2.3c-8.9,2.9-17,7.8-23.7,14.4c-3.3,3.3-6.4,6.9-8.8,10.9
					s-4.6,8.2-6.1,12.7c-6.1,17.8-3.8,38.3,6.5,54.1c6.2,9.7,15.2,17.5,25.7,22.3c10.4,4.8,22.2,6.7,33.6,5.2
					c11.4-1.4,22.4-6.4,31.1-13.8c8.7-7.4,15.4-17.3,19-28.2c1.7-5.2,2.2-10.2,1.9-13.7C928.1,283.4,927.2,281.3,926.4,281.3z"/>
				<path d="M904,281.3c-0.9,0-1.7,1.3-2.5,3.2s-1.5,4.4-2.4,7.1c-1.9,5.7-5.6,10.8-10.3,14.7c-4.7,3.8-10.5,6.4-16.5,7.3
					s-12.3,0.1-17.7-2.4c-5.5-2.5-10.2-6.7-13.5-11.8c-1.4-2.1-2.5-4.3-3.3-6.7c-0.9-2.3-1.4-4.8-1.6-7.2c-0.3-2.5-0.2-5,0.1-7.5
					s0.9-4.9,1.7-7.3c3.3-9.5,10.7-17.7,20.2-21.2c4.7-1.7,9.9-2.3,15-1.6c5.1,0.6,10,2.5,14.3,5.3s8,6.7,10.7,11.2
					c2.6,4.5,4.5,9.6,5,14.9l0,0C903.2,280.6,903.7,281.3,904,281.3c0.4,0,0.7-0.7,0.7-2.2l0,0c-0.1-5.6-1.6-11.1-4.2-16.2
					c-2.6-5-6.4-9.5-11-12.9c-4.6-3.4-10-5.9-15.8-6.8c-5.7-1-11.7-0.6-17.4,1.2c-5.6,1.8-10.8,5.1-14.9,9.3
					c-2.1,2.1-3.9,4.4-5.5,6.9c-1.6,2.5-2.9,5.1-3.9,7.9c-1,2.8-1.8,5.7-2.1,8.6c-0.4,2.9-0.5,5.9-0.2,8.9c0.3,3,0.9,5.9,1.9,8.7
					c1,2.8,2.3,5.6,3.9,8c3.9,6.1,9.5,11.2,16.2,14.2c6.7,3.1,14.2,4,21.4,2.9s14-4.1,19.7-8.6s10.1-10.7,12.4-17.7
					c1.1-3.3,1.2-6.5,0.8-8.8C905.7,282.6,904.9,281.3,904,281.3z"/>
				<path d="M799.6,233.3c-1.8,0-3.2,1.6-3.1,3.5c0.2,3.8,0.5,7.5,0.3,11c-0.1,1.7-0.3,3.5-0.7,5c-0.4,1.5-1,2.8-1.8,3.5
					c-0.2,0.2-0.5,0.4-0.8,0.6c-0.4-7.5-0.9-15.1-1.5-22.6l0,0c-0.1-1.2-1.6-1.2-1.7,0l0,0c-0.7,7.6-1.1,15.2-1.5,22.7
					c-0.7-0.3-1.3-0.8-1.9-1.6c-0.6-0.9-1.1-2.1-1.5-3.4c-0.8-2.6-1.1-5.7-1.3-8.7s-0.3-6.2-0.6-9.3c-0.1-0.8-1.5-0.8-1.7,0
					c-1,6.1-2.5,12.2-1.6,19.1c0.3,1.7,0.7,3.5,1.7,5.3c0.5,0.9,1.1,1.8,1.9,2.5c0.8,0.7,1.7,1.4,2.8,1.9c0.6,0.3,1.2,0.5,1.9,0.6
					c-0.4,8.9-0.6,17.8-0.6,26.8v34.2c0,2.7,1.3,4.9,3,4.9c1.8,0,3-2.2,3-4.9v-34.2c0-8.9,0-17.8-0.4-26.7c1.8-0.4,3.7-1.2,5.1-2.6
					c2-1.9,3-4.3,3.5-6.4c0.6-2.2,0.8-4.3,0.9-6.3c0.2-4.1-0.1-8-0.3-11.8C802.9,234.7,801.4,233.4,799.6,233.3z"/>
			</g>
		</g>
		<g class="st1">
			<g>
				<path d="M943.2,132.7c-2.3-5.2-5.6-10.1-9.7-14.3c-4.2-4.1-9.2-7.2-14.7-9.3c-2.7-1.1-5.5-1.8-8.4-2.4c-1.4-0.4-2.9-0.4-4.3-0.6
					c-1.4-0.2-3-0.3-4.4-0.3c-3,0-6,0.5-8.8,1.3c-2.8,0.8-5.5,1.7-8,2.6c-1.3,0.4-2.6,0.8-3.8,1.2c-1.3,0.4-2.6,0.6-3.6,0.8
					c-2.2,0.2-4.5-0.1-6.9-1c-2.4-0.8-4.9-2-7.6-3c-1.4-0.5-2.8-1-4.3-1.4s-3-0.5-4.5-0.7c-5.9-0.7-11.9-0.2-17.6,1.4
					c-5.7,1.6-11.1,4.1-15.9,7.6c-2.5,1.8-4.7,3.8-6.8,5.8c-2,2.2-4,4.4-5.6,6.9c-3.3,4.8-5.9,10.2-7.5,15.9
					c-3.3,11.4-2.3,23.7,1.2,34.6c4.3,13.5,11.6,25.5,20.2,36.3c4.3,5.4,8.9,10.5,13.9,15.3c2.5,2.4,5,4.7,7.6,7
					c1.3,1.1,2.7,2.2,4,3.3l3.9,3.2c2.6,2.2,5.3,4.4,8.2,6.4s6.1,4,9.9,5.1c1.8,0.5,3.8,1,6.1,0.9c2.3,0,4.5-0.8,6.2-1.6
					c1.7-0.9,3.2-1.8,4.6-2.6c1.5-0.9,3-1.8,4.5-2.7c11.7-7.5,22.1-16.8,31.2-27c8.7-9.8,13.3-19.6,11.7-20.6
					c-1.6-1.1-8.5,6.7-16.8,16c-8.8,9.9-18.7,18.8-29.8,25.8c-1.4,0.9-2.8,1.7-4.2,2.5c-1.5,0.9-2.9,1.7-4.2,2.3
					c-1.3,0.6-2.3,0.9-3.5,1c-1.1,0.1-2.5-0.2-3.9-0.6c-2.7-0.8-5.3-2.3-8-4.2c-2.6-1.8-5.2-3.9-7.7-6l-3.9-3.3
					c-1.3-1.1-2.6-2.1-3.8-3.2c-2.5-2.1-4.9-4.4-7.3-6.7c-4.7-4.6-9.2-9.5-13.3-14.7c-8.2-10.3-15.1-21.7-19-34.1
					c-3.2-10.1-4-20.8-1.2-30.8c1.4-5,3.6-9.7,6.5-14c1.4-2.2,3.1-4.1,4.8-6c1.8-1.8,3.7-3.6,5.8-5.1c4.1-3.1,8.9-5.3,13.8-6.8
					c4.9-1.4,10.1-1.9,15.2-1.4c1.3,0.2,2.6,0.3,3.7,0.6c1.2,0.3,2.4,0.6,3.6,1.1c2.5,0.9,5,2,7.9,2.9c2.8,0.9,6.1,1.5,9.4,1.1
					c1.7-0.3,3.1-0.6,4.5-1s2.7-0.9,4.1-1.3c5.3-1.9,10.1-3.9,15.2-3.9c0.6,0,1.3,0,1.9,0c0.6,0,1.3,0.1,1.9,0.1
					c1.3,0.2,2.6,0.2,3.9,0.5c2.6,0.4,5.1,1.1,7.6,1.9c4.9,1.7,9.5,4.4,13.3,8c3.8,3.6,6.9,7.9,9.2,12.7c4.5,9.6,5.9,20.6,5.2,31.4
					c-0.9,10.8-3.9,21.4-9.2,30.9l0,0c-1.5,2.4-1.9,3.9-1.5,4.1c0.3,0.2,1.4-0.7,3.1-3.2l0,0c5.8-9.5,9.4-20.4,10.6-31.5
					C948.9,154.9,947.8,143.3,943.2,132.7z"/>
				<path d="M926.9,177.5L926.9,177.5c-3.1,0-6.2,0.2-9.1,0.1c-1.5-0.1-2.9-0.2-4.3-0.5c-1.3-0.3-2.3-0.9-3.4-1.8
					c-2.1-1.8-3.9-4.2-5.7-6.6l-1.4-1.8l-0.7-1l-1.1-1.4c-0.8-1-1.6-1.9-2.4-2.9c-0.4-0.5-0.8-1-1.3-1.4l-1.1,1.4
					c-4.1,5.4-8.3,10.9-12.4,16.3l-5.5,7.4l-1.4,1.8l-0.7,0.9c-0.2,0.2-0.1,0.1-0.1,0.2l0,0c-0.1,0.1-0.2,0.2-0.2,0.2l-0.1-0.3V188
					l0,0l-0.2-0.4l-0.9-1.8l-3.6-7.2l-7.4-14.3l-7.5-14.4l-3.7-7.1l-2-3.4l-0.5-0.9c-0.1-0.1-0.2-0.3-0.2-0.4l-0.2,0.5l-0.9,1.8
					l-3.4,7.2l-2.4,5.1c-2.3,4.9-4.5,9.7-6.9,14.5c-0.6,1.2-1.2,2.4-1.8,3.5c-0.6,1-1.2,2-1.8,2.7s-1.2,1.2-1.9,1.4
					c-0.7,0.3-1.6,0.4-2.8,0.4c-2.2,0-4.7,0.2-6.4,0.7c-1.8,0.5-2.8,1.4-2.8,2.4l0,0c0,1,1,1.8,2.6,2.5c1.6,0.7,3.8,1.3,6.7,1.3
					c1.5,0,3.3-0.2,5.2-0.9c1.8-0.7,3.4-2,4.5-3.2c1.2-1.3,2-2.6,2.7-4c0.7-1.2,1.3-2.4,1.9-3.7c2.5-4.9,4.8-9.8,7-14.7l1-2.2
					l7.4,14.2l7.5,14.2c3.3,6.3,6.6,12.5,10,18.8l5.2-7.3l3.1-4.5l5.2-7.6l5.2-7.6l2.6-3.8l0.6-1c0.1-0.2,0.2-0.2,0.2-0.3l0.1-0.1
					l0.4-0.6l0.2-0.4c0.1,0.1,0.2,0.1,0.3,0.2l0.5,0.5l0.4,0.4l0.7,0.8l1.5,1.8c2,2.3,4.1,4.7,6.8,6.8c1.3,1,3.1,1.8,4.8,2.1
					c1.7,0.3,3.3,0.2,4.9,0.2c3.2-0.2,6.2-0.7,9.2-1l0,0C929.2,179,929.3,177.5,926.9,177.5z"/>
			</g>
		</g>
	</g>
</g>
<g id="section-3">
	<g>
		<text style="font-family: Raleway" transform="matrix(1 0 0 1 54.5814 173.7474)"><tspan x="0" y="0" class="st20 st21 st22">Розпакуйте </tspan><tspan x="8.9" y="33.6" class="st20 st21 st22">інгрідієнти</tspan></text>
		<text transform="matrix(1 0 0 1 232.4076 378.191)"><tspan x="0" y="0" class="st20 st21 st22">Дотримуйтесь</tspan><tspan x="28.2" y="33.6" class="st20 st21 st22">інструкцій</tspan></text>
		<text transform="matrix(1 0 0 1 446.0148 241.3104)" class="st20 st21 st22">Оформіть подачу</text>
		<text transform="matrix(1 0 0 1 694.4728 340.9756)"><tspan x="0" y="0" class="st20 st21 st22">Насолодіться</tspan><tspan x="31" y="33.6" class="st20 st21 st22">вечерею</tspan></text>
		<g>
			<g>
				<g>
					<path class="st16" d="M354.5,310.5c-0.7,0-1.2,1.5-1.4,3.9c-0.3,2.4-0.2,5.5-0.2,8.8c0,1.8-0.1,3.5-0.5,5
						c-0.3,1.6-1,2.9-1.7,3.3c-0.1,0.1-0.2,0.1-0.3,0.2l-0.1,0.1c-0.1,0-0.1,0.1-0.2,0.1c-0.3,0.1-0.6,0.2-1,0.3
						c-0.3,0.1-0.7,0.1-1.2,0.2c-0.4,0.1-0.8,0.1-1.2,0.1c-1.7,0.1-3.5,0.1-5.2,0c-3.6-0.2-7.2-0.7-11.1-0.9h-1.5h-1.4h-2.8
						l-5.6,0.1c-7.3,0.1-14.8,0.3-21.9-0.2c-0.8-0.1-1.6-0.2-2.2-0.4c-0.7-0.2-1-0.4-1.1-0.7c-0.2-0.3-0.4-0.8-0.5-1.6
						c-0.1-0.7-0.2-1.6-0.2-2.4c-0.1-3.6-0.2-7.3-0.3-11c-0.2-12.1,0-24.2,0.1-36.3V270v-4.6v-1.2c0-0.4,0-0.8-0.1-1.2l-0.2-2.3
						c-0.2-2.9-0.2-5.9,1.1-7c0.3-0.3,0.7-0.5,1.3-0.8c0.6-0.2,1.2-0.4,1.9-0.5c1.3-0.3,2.7-0.5,4.2-0.5c5.8-0.3,11.8,0.6,18,0.8
						c3.2,0.1,6.3-0.3,9.3-0.5s6-0.6,9-0.8c3-0.2,5.9-0.3,8.8,0.1c1.4,0.1,2.9,0.5,4.2,0.9c1.2,0.4,2,1.4,2.7,2.5
						c1.2,2.4,1.4,5.5,1.4,8.4c0,3-0.3,6-0.3,9l0,0c-0.1,1.6,0.2,2.4,0.5,2.4c0.3,0,0.5-0.7,0.7-2.3l0,0c0.3-3,0.7-6,0.8-9
						c0.1-1.6,0.1-3.1-0.1-4.6c-0.1-1.6-0.5-3.1-1.2-4.7c-0.3-0.7-0.8-1.5-1.4-2.2c-0.6-0.7-1.4-1.2-2.2-1.5c-1.6-0.6-3.1-1-4.7-1.2
						c-3.1-0.5-6.2-0.5-9.3-0.4c-3.1,0.1-6.1,0.3-9.1,0.5s-6,0.4-8.8,0.3c-5.9-0.3-11.9-1.4-18.2-1.3c-1.6,0-3.2,0.1-4.8,0.5
						c-0.8,0.1-1.6,0.4-2.5,0.7c-0.9,0.3-1.8,0.8-2.6,1.6c-0.8,0.7-1.4,1.6-1.8,2.5c-0.4,1-0.6,1.8-0.7,2.7
						c-0.2,1.8-0.1,3.4-0.1,4.9l0.1,2.2c0,0.3,0,0.7,0,1.1v1.2l-0.3,4.5l-0.1,9.1c-0.2,12.1-0.4,24.3-0.3,36.5
						c0.1,3.7,0.1,7.4,0.3,11.2c0.1,1,0.1,2,0.3,3.1c0.2,1.1,0.5,2.3,1.4,3.6c0.4,0.6,1,1.1,1.6,1.5c0.3,0.2,0.6,0.3,0.9,0.5
						c0.3,0.1,0.6,0.2,0.9,0.3c1.2,0.3,2.2,0.5,3.2,0.6c7.6,0.6,15,0.4,22.5,0.2l5.5-0.1h2.7h1.4h1.3c3.5,0.2,7.2,0.7,11,0.9
						c1.9,0.1,3.8,0.1,5.9,0c0.5-0.1,1-0.1,1.6-0.1c0.5-0.1,1-0.1,1.6-0.3c0.5-0.1,1.1-0.3,1.6-0.5c0.1-0.1,0.3-0.1,0.4-0.1l0.5-0.2
						c0.3-0.1,0.6-0.3,0.9-0.5c1.1-0.8,1.9-1.9,2.4-3c0.5-1.1,0.8-2.1,1.1-3.2c0.4-2.1,0.5-4.1,0.5-6c0-3.7-0.6-6.9-1.2-9.1
						C355.8,311.8,355.2,310.5,354.5,310.5z"/>
					<path class="st16" d="M322.2,274.1c-3.8-1.2-7.7-1.8-11.6-1.8h-7.1c-0.5,0-1,1-1,2.4c0,1.3,0.5,2.4,1,2.4h7.1
						c3.9,0,7.8-0.6,11.6-1.8C322.4,275.2,322.4,274.2,322.2,274.1z"/>
					<path class="st16" d="M322.2,262c-3.8-1.2-7.7-1.8-11.6-1.8h-7.1c-0.5,0-1,1-1,2.4c0,1.3,0.5,2.4,1,2.4h7.1
						c3.9,0,7.8-0.6,11.6-1.8C322.4,263.1,322.4,262.1,322.2,262z"/>
					<path class="st16" d="M322.2,286c-3.8-1.2-7.7-1.8-11.6-1.8h-7.1c-0.5,0-1,1-1,2.4c0,1.3,0.5,2.4,1,2.4h7.1
						c3.9,0,7.8-0.6,11.6-1.8C322.4,287.1,322.4,286.1,322.2,286z"/>
					<path class="st16" d="M322.2,297.9c-3.8-1.2-7.7-1.8-11.6-1.8h-7.1c-0.5,0-1,1-1,2.4c0,1.3,0.5,2.4,1,2.4h7.1
						c3.9,0,7.8-0.6,11.6-1.8C322.4,299.1,322.4,298,322.2,297.9z"/>
					<path class="st16" d="M322.2,309.8c-3.8-1.2-7.7-1.8-11.6-1.8h-7.1c-0.5,0-1,1-1,2.4c0,1.3,0.5,2.4,1,2.4h7.1
						c3.9,0,7.8-0.6,11.6-1.8C322.4,311,322.4,310,322.2,309.8z"/>
					<path class="st16" d="M322.2,322c-3.8-1.2-7.7-1.8-11.6-1.8h-7.1c-0.5,0-1,1-1,2.4c0,1.3,0.5,2.4,1,2.4h7.1
						c3.9,0,7.8-0.6,11.6-1.8C322.4,323.1,322.4,322,322.2,322z"/>
					<path class="st16" d="M389.4,258c-0.2-0.6-0.4-1.2-0.7-1.7c-0.1-0.2-0.3-0.4-0.3-0.6l-0.4-0.5c-0.3-0.3-0.5-0.6-0.9-0.9
						c-0.3-0.3-0.6-0.5-0.9-0.7c-0.3-0.2-0.6-0.5-1-0.7c-0.4-0.2-0.7-0.4-1.2-0.5l-0.7-0.2c-0.3-0.1-0.5-0.1-0.7-0.1
						c-0.5-0.1-1,0-1.6,0.1c-0.5,0.1-1,0.3-1.4,0.5c-1.7,1-2.4,2.2-3.1,3.3c-0.5,1-1,1.8-1.4,2.8c-0.3,0.1-0.6,0.1-0.9,0.3
						c-0.2,0.1-0.4,0.1-0.5,0.3l-0.4,0.3l-0.4,0.3l-0.3,0.3c-0.2,0.1-0.4,0.3-0.6,0.5c-1.4,1.3-2.6,2.6-3.7,3.9s-2.3,2.6-3.4,3.9
						c-2.7,3.2-5.3,6.5-7.9,9.7c-1.3,1.6-2.6,3.2-3.9,4.8c-1.3,1.6-2.7,3.1-4.1,4.6c-2.8,3.1-5.7,6.1-8.4,9.5
						c-1.4,1.7-2.6,3.5-3.7,5.3c-0.5,1-1.2,1.8-1.6,3.1c-0.1,0.3-0.3,0.7-0.3,1.1c0,0.1-0.1,0.3-0.1,0.3c-0.7-0.1-1.4,0.1-1.6,0.5
						c-0.7,1.5-1.6,3-2.3,4.6c-0.3,0.8-0.7,1.6-1.1,2.4c-0.1,0.4-0.3,0.9-0.5,1.3l-0.1,0.4l-0.2,0.6c-0.1,0.4-0.2,0.8-0.3,1.2
						c-0.3,1.4-0.1,2.5,0.5,3.4c0.1,0.2,0.3,0.4,0.5,0.6c0.2,0.2,0.5,0.3,0.7,0.5c0.5,0.3,1,0.3,1.6,0.3c1.1,0,2.4-0.5,3.5-1.2
						c0.3-0.2,0.4-0.3,0.6-0.3l0.5-0.3c0.3-0.2,0.6-0.4,0.9-0.7c2.3-1.8,4.2-3.9,6-6c0.1-0.1,0-0.4-0.1-0.6l0,0
						c0.2,0.2,0.7,0,1.3-0.6l0,0c9.2-10.1,18.2-20.2,27.2-30.5l6.7-7.8l3.3-3.9l2.2-2.7c0.3-0.3,0.5-0.6,0.7-0.9
						c0.1-0.1,0.3-0.1,0.4-0.2c1-1.2,2.1-2.2,3.2-3.9c0.5-0.8,1-1.8,1.2-3.1c0-0.3,0.1-0.7,0.1-1C389.6,258.6,389.5,258.3,389.4,258
						z M335.2,316.9l-0.9,0.4l-0.4,0.2c-0.1,0.1-0.3,0.1-0.3,0.1c-0.1,0-0.1-0.1-0.1-0.1c-0.1-0.1,0.1-0.1,0.1-0.1l0.1-0.2
						c0.1-0.3,0.3-0.7,0.4-1.1c0.3-0.7,0.6-1.5,1-2.2c0.4-1,0.9-1.8,1.4-2.8c0.3,0.3,0.7,0.5,1,0.7c0.4,0.3,0.8,0.5,1.2,0.7
						c0.7,0.4,1.4,0.7,2.1,0.9c0.3,0.1,0.6,0.2,0.9,0.3C339.2,314.7,337.2,315.8,335.2,316.9z M379.4,266.6L379.4,266.6L379.4,266.6
						l-0.2,0.3l-0.8,1l-3.2,3.9l-6.5,8c-8.5,10.6-16.9,21.4-25.2,32.2l0,0c-0.1,0.1-0.2,0.3-0.3,0.4c-0.1-0.5-0.3-1-0.7-1.6
						c-0.4-0.6-1-1.2-1.6-1.8c-0.3-0.3-0.7-0.6-1-0.9c-0.3-0.3-0.7-0.6-0.7-0.7l-0.1-0.1l0.1-0.4c0.3-0.7,0.8-1.6,1.3-2.4
						c1-1.7,2.2-3.3,3.5-4.8c2.5-3.1,5.3-6.1,8.2-9.3c1.4-1.6,2.9-3.1,4.2-4.7c1.4-1.6,2.7-3.3,4-4.9c2.7-3.3,5.2-6.5,7.8-9.7
						c1.1-1.3,2.2-2.6,3.3-3.8c1.1-1.2,2.3-2.5,3.3-3.5l0.4-0.3l0.2-0.1l0.1-0.1l0.1-0.1c0.1,0.1-0.1-0.2,0.5,0.4
						c0.5,0.5,1.2,1.1,1.8,1.7l1,1l0.3,0.2C379.4,266.6,379.3,266.6,379.4,266.6L379.4,266.6L379.4,266.6L379.4,266.6z M379.4,260.3
						c-0.2-0.1-0.4-0.3-0.6-0.5c-0.1-0.1-0.3-0.2-0.4-0.3c-0.2-0.1-0.3-0.2-0.5-0.3c-0.2-0.1-0.4-0.2-0.6-0.3
						c0.5-0.4,0.9-0.8,1.4-1.2c0.9-0.7,1.9-1.5,2.6-1.6c0.3-0.1,0.5,0,0.7,0.1c0.1,0,0.1,0.1,0.2,0.1c0.1,0.1,0.1,0.1,0.2,0.1
						c0.1,0.1,0.3,0.2,0.5,0.3c0.7,0.5,1.5,1.4,1.8,1.9c0.2,0.3,0.3,0.5,0.2,0.7c0,0.3-0.2,0.7-0.5,1.2c-0.5,0.8-1.3,1.6-2.1,2.6
						l-0.1-0.1l-0.9-0.9C380.7,261.5,380.2,261,379.4,260.3z"/>
				</g>
			</g>
			<g>
				<g>
					<path class="st16" d="M565.8,145.9c-0.7-0.1-1.6-0.3-2.4-0.2c-0.9,0.1-1.7,0.3-2.4,0.5c-0.7,0.2-1.3,0.5-1.8,0.8l-0.8,0.4
						l-0.3,0.1l-0.4,0.1c-0.3,0.1-0.5,0.1-0.8,0.3v0.1c-1.5-1-3.1-1.5-4.8-1.6c-2-0.1-4,0.3-5.7,1.3c-3.5,1.9-5.4,5.7-5.4,9.3
						c0,0.7,0.3,1,0.6,1c0.3,0,0.6-0.3,0.7-0.8l0,0c0.5-3.2,2.6-6,5.4-7.1c1.3-0.6,2.9-0.7,4.3-0.5c1.3,0.2,2.6,0.9,3.5,1.7
						c0.1,0.2,0.4,0.4,0.7,0.7c0.2,0.1,0.6,0.3,1,0.3c0.4,0.1,0.8-0.1,1.1-0.2c0.3-0.1,0.5-0.3,0.7-0.4s0.3-0.3,0.4-0.4l0.1-0.1
						c0,0,0.1,0,0.1,0h0.1c0,0,0,0,0.1-0.1c0.4-0.1,0.7-0.2,1-0.3c0.7-0.2,1.2-0.4,1.7-0.6c1-0.3,1.8-0.3,2.7,0
						c1.8,0.5,3.5,1.8,4.4,3.7c1,1.8,1.3,3.9,0.8,5.7s-1.7,3.4-3.5,4.9c-0.4,0.4-1,0.8-1.5,1.2l-1.7,1.3l-3.2,2.4
						c-1,0.8-2.1,1.5-3.2,2.2l-0.1,0.1l-0.8-0.6c-2.4-1.7-4.6-3-6.7-4.6s-3.9-3.2-4.9-5.1c-0.5-0.9-1-1.6-1.5-2.2
						c-0.5-0.6-1.1-1.1-1.8-1.1l0,0c-0.7,0-1.3,0.5-1.5,1.6c-0.2,1-0.1,2.6,0.7,4c1.6,2.9,4,4.9,6.3,6.6c2.3,1.7,4.6,3.2,6.7,4.6
						l0.9,0.7c0.4,0.4,1.1,0.8,1.7,1s1.3,0.2,1.9,0c0.3-0.1,0.6-0.2,0.9-0.4l0.4-0.2l0.4-0.2c1.3-0.8,2.4-1.6,3.5-2.4l3.2-2.5
						l1.6-1.2c0.6-0.4,1.2-0.9,1.7-1.3c1.1-0.9,2.1-1.9,3.1-3.2c0.9-1.3,1.6-2.8,1.9-4.3c0.7-3.1,0.1-6.4-1.5-9
						C571.6,148.7,568.9,146.6,565.8,145.9z"/>
					<path class="st16" d="M599.7,160.9c-0.7,0-1.3,1.5-1.9,3.9c-0.7,2.4-1.5,5.5-2.6,8.9c-2.4,7.2-6.8,13.7-12.5,18.6
						c-5.7,4.9-12.9,8.2-20.4,9c-7.5,1-15.2-0.3-22.1-3.5c-6.8-3.2-12.8-8.3-16.8-14.6c-6.8-10.4-8.4-24-4.5-35.8
						c1-2.9,2.4-5.7,3.9-8.5c1.6-2.6,3.6-5.1,5.7-7.4c4.4-4.4,9.8-7.9,15.7-9.9c5.9-2.1,12.3-2.8,18.5-2l2.4,0.4l2.3,0.5l1.2,0.3
						l1.1,0.4l2.2,0.7l2.2,1l1.1,0.4c0.4,0.1,0.7,0.4,1,0.6l2.1,1.1l2,1.3l1,0.7c0.3,0.2,0.6,0.5,1,0.7l1.8,1.5l1.8,1.6l0.9,0.8
						l0.8,0.9l1.6,1.8l1.5,1.9l0.7,1l0.7,1l1.3,2l1.1,2.1l0.6,1l0.4,1.1l1,2.2l0.7,2.3l0.4,1.2l0.3,1.2l0.6,2.4l0.4,2.4l0.2,1.2
						l0.1,1.2l0,0C599,160.1,599.4,160.9,599.7,160.9c0.3,0,0.5-0.9,0.5-2.6l0,0v-1.3l-0.1-1.3l-0.3-2.5l-0.5-2.4l-0.2-1.3l-0.4-1.2
						l-0.7-2.4l-0.9-2.4l-0.4-1.2l-0.5-1.1l-1.1-2.3l-1.3-2.1l-0.7-1.1l-0.7-1l-1.5-2.1l-1.6-1.9l-0.8-1l-0.9-0.9l-1.8-1.8l-1.9-1.6
						c-0.3-0.3-0.7-0.5-1-0.8l-1-0.7c-0.7-0.5-1.4-1-2.1-1.5l-2.2-1.3c-0.4-0.2-0.7-0.4-1.1-0.7l-1.2-0.5l-2.3-1.1l-2.4-0.9
						l-1.2-0.4l-1.3-0.3l-2.5-0.7l-2.5-0.4c-6.8-1-13.8-0.4-20.2,1.7c-6.5,2.1-12.5,5.7-17.4,10.6c-2.4,2.4-4.7,5.1-6.5,8
						c-1.8,2.9-3.4,6-4.5,9.3c-4.5,13.1-2.8,28.2,4.8,39.8c4.6,7.1,11.2,12.9,18.9,16.4c7.7,3.5,16.3,4.9,24.7,3.8
						c8.4-1,16.5-4.7,22.9-10.2c6.4-5.4,11.3-12.7,14-20.7c1.3-3.8,1.6-7.5,1.4-10.1C600.9,162.5,600.3,160.9,599.7,160.9z"/>
					<path class="st16" d="M583.2,160.9c-0.7,0-1.3,1-1.8,2.4c-0.6,1.4-1.1,3.2-1.8,5.2c-1.4,4.2-4.1,7.9-7.6,10.8
						c-3.5,2.8-7.7,4.7-12.1,5.4s-9,0.1-13-1.8c-4-1.8-7.5-4.9-9.9-8.7c-1-1.5-1.8-3.2-2.4-4.9c-0.7-1.7-1-3.5-1.2-5.3
						c-0.2-1.8-0.1-3.7,0.1-5.5c0.2-1.8,0.7-3.6,1.3-5.4c2.4-7,7.9-13,14.9-15.6c3.5-1.3,7.3-1.7,11-1.2c3.8,0.4,7.4,1.8,10.5,3.9
						c3.2,2.1,5.9,4.9,7.9,8.2c1.9,3.3,3.3,7.1,3.7,11l0,0C582.6,160.4,583,160.9,583.2,160.9c0.3,0,0.5-0.5,0.5-1.6l0,0
						c-0.1-4.1-1.2-8.2-3.1-11.9c-1.9-3.7-4.7-7-8.1-9.5s-7.4-4.3-11.6-5c-4.2-0.7-8.6-0.4-12.8,0.9c-4.1,1.3-7.9,3.8-11,6.8
						c-1.5,1.5-2.9,3.2-4,5.1c-1.2,1.8-2.1,3.8-2.9,5.8c-0.7,2.1-1.3,4.2-1.5,6.3c-0.3,2.1-0.4,4.3-0.1,6.5s0.7,4.3,1.4,6.4
						s1.7,4.1,2.9,5.9c2.9,4.5,7,8.2,11.9,10.4c4.9,2.3,10.4,2.9,15.7,2.1s10.3-3,14.5-6.3c4.2-3.3,7.4-7.9,9.1-13
						c0.8-2.4,0.9-4.8,0.6-6.5C584.5,161.9,583.9,160.9,583.2,160.9z"/>
					<path class="st16" d="M617,132.5v-3.4v-2v-1v-0.2c0-0.1,0-0.1-0.1-0.1l-0.1-0.2l-1-1.7l-0.2-0.4c0-0.1-0.2,0-0.3-0.1H615
						c-0.4,0-1,0.1-1.4,0.1c-0.9,0.1-1.7,0.5-2.4,1c-0.7,0.5-1.3,1.3-1.8,2.2c-0.5,1-0.9,2.1-1.1,3.5l-0.1,0.9l-0.1,0.5l-0.1,1
						c-0.8,5.6-1,11.3-1.4,16.8c-0.1,2.8-0.2,5.7,0.6,8.7c0.4,1.5,1.1,2.9,2.4,4c0.9,0.8,1.9,1.3,3,1.5v26.6c0,3.2,1.1,5.9,2.4,5.9
						c1.3,0,2.4-2.6,2.4-5.9v-40.8C617.1,143.7,617.1,138.1,617,132.5z M610.5,161.1c-0.8-0.9-1.3-2.1-1.5-3.3
						c-0.4-2.5-0.1-5.2,0.1-7.9c0.7-5.6,1.4-11,2.4-16.5l0.2-1l0.1-0.5v-0.1l0,0v-0.1c0.1-0.1,0.1-0.2,0.1-0.3
						c0.1-0.1,0.2-0.2,0.4-0.2c0.2,0,0.1,0.2,0.1,0.4v0.1v0.1l0,0v0.2v0.5c-0.1,5.6-0.1,11.2-0.1,16.8v13
						C611.6,162,610.9,161.7,610.5,161.1z"/>
					<path class="st16" d="M506.4,125.6c-1.3,0-2.4,1.2-2.3,2.6c0.1,2.8,0.4,5.5,0.2,8.1c-0.1,1.3-0.2,2.6-0.5,3.7s-0.7,2.1-1.3,2.6
						c-0.1,0.1-0.4,0.3-0.6,0.4c-0.3-5.5-0.7-11.1-1.1-16.6l0,0c-0.1-0.9-1.2-0.9-1.3,0l0,0c-0.5,5.6-0.8,11.2-1.1,16.7
						c-0.5-0.2-1-0.6-1.4-1.2c-0.4-0.7-0.8-1.5-1.1-2.5c-0.6-1.9-0.8-4.2-1-6.4c-0.1-2.2-0.2-4.6-0.4-6.8c-0.1-0.6-1.1-0.6-1.3,0
						c-0.7,4.5-1.8,9-1.2,14.1c0.2,1.3,0.5,2.6,1.3,3.9c0.4,0.7,0.8,1.3,1.4,1.8c0.6,0.5,1.3,1,2.1,1.4c0.4,0.2,0.9,0.4,1.4,0.4
						c-0.3,6.5-0.4,13.1-0.4,19.7v25.2c0,2,1.1,3.6,2.4,3.6c1.3,0,2.4-1.6,2.4-3.6v-25.2c0-6.5-0.1-13.1-0.4-19.6
						c1.3-0.3,2.6-0.9,3.7-1.9c1.5-1.4,2.2-3.2,2.6-4.7c0.4-1.6,0.6-3.2,0.7-4.6c0.1-3-0.1-5.9-0.2-8.7
						C508.8,126.7,507.7,125.7,506.4,125.6z"/>
				</g>
			</g>
			<path class="st19" d="M62.6,106c0,0-84.6,30.3-43.3,137.9s134.1,54.3,134.1,54.3s44.6-11.3,38.9-33.5s-35,14.3-35,14.3
				s-26.6,74.2,27.3,68.1c50.6-5.7,88.3-46.1,88.3-46.1"/>
			<path class="st19" d="M323.9,230.3c0,0-29.2-90,23.3-169s145.2-42.7,157-31.4s42.5,17.4,50.3,68.9"/>
			<path class="st19" d="M520.2,267c0,0-61,52.1-34.4,171.9s185.3,22.5,181.7-4.1c-3.7-26.6-26.9-10-26.1-4.2
				c0.8,5.8,4.2-24.1-10.8-26.6c-15-2.5-16.6,20.8-16.6,20.8s11.6,66.5,43.3,56.6c31.6-10,82.5-56.4,92-88.5"/>
			<g>
				<g>
					<path class="st16" d="M92.9,90.6l11.8-10.4c6.4-5.7,12.6-11.8,18.3-18.1l0,0c0.4-0.4-0.2-1.1-0.7-0.7
						c-7,4.9-13.8,10.3-20.2,15.9L90.3,87.7c-1,0.8-1.1,2.1-0.4,2.9C90.6,91.4,91.9,91.4,92.9,90.6z"/>
					<path class="st16" d="M155.3,80.2l11.8,10.4c1,0.8,2.3,0.8,3,0.1c0.7-0.8,0.5-2.1-0.4-2.9l-11.8-10.4c-6.4-5.7-13.2-11-20.2-16
						c-0.5-0.3-1,0.3-0.7,0.7C142.7,68.4,148.8,74.5,155.3,80.2z"/>
					<path class="st16" d="M112.1,105.2L112.1,105.2c-0.1-0.2-1-0.1-1,0.2c-0.3,4.1-0.1,8.2,0.5,12.2l1.2,7.3c0.1,0.6,1,0.9,2.1,0.7
						c1.1-0.2,1.9-0.8,1.7-1.4l-1.2-7.3C114.9,113,113.7,109.1,112.1,105.2z"/>
					<path class="st16" d="M147.8,105.2c-1.6,3.8-2.7,7.7-3.4,11.7l-1.2,7.3c-0.1,0.6,0.7,1.2,1.7,1.4c1.1,0.2,2-0.2,2.1-0.7
						l1.2-7.3c0.7-4,0.8-8.1,0.5-12.2C148.7,105.2,147.9,105,147.8,105.2z"/>
					<path class="st16" d="M129.5,105.4c-1,4-1.5,7.9-1.5,11.9v7.3c0,0.6,0.8,1.1,1.9,1.1c1.1,0,1.9-0.5,1.9-1.1v-7.3
						c0-4-0.5-8-1.5-11.9C130.4,105.1,129.5,105.1,129.5,105.4z"/>
					<path class="st16" d="M130,93.1c-6.7-0.1-13.4-0.1-20.1-0.1c-6.8,0-13.6-0.1-20.4-0.1c-1.1,0-2,1.1-1.6,2.2l0.3,0.9l0.5,1.5
						l0.3,0.9l0.8,3.1c1.6,6.3,3.2,12.6,5.2,18.9c1,3.2,2.1,6.3,3.6,9.4c0.7,1.5,1.6,3,2.7,4.5c0.5,0.7,1.2,1.4,1.9,2.1
						c0.2,0.2,0.4,0.3,0.6,0.5c0.2,0.2,0.4,0.3,0.7,0.5l0.7,0.4l0.7,0.2c1.9,0.6,3.6,0.8,5.3,0.9c1.7,0.1,3.4,0.1,5.1,0
						c3.3-0.1,6.6-0.5,9.8-0.7c1.6-0.1,3.2-0.3,4.7-0.3h4.8h9.8c6.2,0,11.2-0.8,11.2-1.9c0.2,0.1,0.7-0.5,1.1-1.8l0,0
						c2.3-6.4,4.5-12.9,6.8-19.4c1.1-3.2,2.3-6.5,3.4-9.7l1.7-4.8l1.5-4.3c0.4-1.1-0.5-2.2-1.6-2.3C156.3,93.5,143.2,93.3,130,93.1z
						 M156.8,133.8L156.8,133.8c-0.3,0.9-0.3,1.5-0.3,1.9c-0.8-1-5.5-1.6-11-1.6h-9.8h-4.8c-1.7,0-3.4,0.2-5,0.3
						c-3.3,0.3-6.5,0.6-9.6,0.7c-1.6,0.1-3.2,0.1-4.7,0c-1.5-0.1-3-0.3-4.3-0.7l-0.5-0.2c-0.1-0.1-0.2-0.1-0.3-0.2
						c-0.2-0.1-0.5-0.3-0.7-0.5c-0.5-0.4-1-0.9-1.4-1.5c-0.8-1.1-1.6-2.5-2.3-3.8c-1.4-2.8-2.4-5.8-3.4-8.8
						c-2-6.1-3.5-12.4-5.1-18.7l-0.8-3.2l-0.2-0.6l0,0l0,0c5.8,0,11.6-0.1,17.5-0.1c6.7-0.1,13.4-0.1,20.1-0.1
						c6.7-0.1,13.4-0.1,20-0.2l10-0.1l5-0.1l2.4-0.1l0.8-0.1C164.4,108.7,160.6,121.2,156.8,133.8z"/>
				</g>
			</g>
		</g>
		<g>
			<g>
				<path class="st16" d="M805.5,282.3c-0.6-2-1.2-4-1.6-6c-0.1-0.5-0.2-1-0.2-1.5c0-0.4-0.1-0.8-0.1-1.3c0-0.4-0.1-0.8,0.1-1.6
					l0.3-1.9l0.1-1l0.1-0.4c0-0.1,0.1-0.3,0.1-0.5l1-5.1l-0.1,0.1H805l-0.1,0.1l-0.2,0.1l-0.4,0.3l-0.1,0.1c-0.1,0-0.1,0-0.1,0.1
					l-0.4,0.4l-0.9,1c-1.1,1.3-2.3,2.5-3.5,3.9c-0.6,0.7-1.2,1.4-1.8,2.2l-0.9,1.2c-0.6-2.1-1.3-4.2-2.2-6.3
					c-0.4-0.8-0.7-1.7-1.2-2.5c-0.2-0.4-0.4-0.8-0.7-1.3l-0.4-0.6c-0.1-0.1-0.2-0.3-0.3-0.4l-0.4-0.5c-0.5-0.7-1-1.4-1.6-1.9
					c-0.5-0.6-1.1-1.1-1.6-1.6l-3.3-3.1l-0.4,4.8l-0.3,2.2c-0.1,0.4-0.1,0.7-0.2,1l-0.2,0.7c-0.4,1.2-0.9,2.3-1.5,3.5l-2.4,4.4
					l-0.1-0.2c-0.1-0.1-0.1-0.2-0.1-0.4c-0.1-0.4-0.2-0.9-0.2-1.4l-0.4-4.6l-3.5,3c-1.8,1.5-3.1,3.3-4.1,5.1c-1,1.8-1.9,3.7-2.5,5.7
					c-0.7,1.9-1.1,3.9-1.4,5.9c-0.4,2-0.4,4-0.4,6.1c0,1.8,0.6,3.4,1.3,4.5c0.7,1,1.6,1.5,2.2,1.2c0.6-0.3,0.9-1,1.1-2.1
					s0.2-2.3,0.2-3.8c-0.1-1.7,0.1-3.5,0.4-5.2c0.3-1.7,0.7-3.5,1.3-5.1c0.5-1.6,1.3-3.3,2.1-4.8c0.1-0.2,0.3-0.5,0.4-0.7
					c0.1,0.2,0.2,0.4,0.4,0.7c0.3,0.6,0.6,1.1,0.9,1.8c0.3,0.7,0.5,1.6,0.7,2.5l1.6,5.6l2-5.4c0.4-1,0.7-1.9,1-2.8
					c0.1-0.4,0.4-0.9,0.5-1.3l0.6-1.2l0.1-0.3l0.1-0.2l0.1-0.3l0.3-0.6l0.7-1.1c0.4-0.8,0.9-1.6,1.3-2.4c0.7-1.3,1.3-2.8,1.8-4.2
					l0.1-0.2l0,0l0,0l0,0l0,0c0-0.1,0,0,0.1,0l0,0c0,0,0,0,0.1,0.1l0.3,0.5c0.2,0.3,0.4,0.7,0.6,1c0.4,0.7,0.7,1.4,1.1,2.2
					c1.3,3,2.3,6.3,3.4,9.6l1.3,4.1l2.4-3.5c0.6-0.9,1.2-1.7,1.8-2.6l0.2-0.3l0.1-0.1c0,0,0,0,0-0.1l0.1-0.1l0.1-0.3
					c0.1-0.2,0.3-0.4,0.5-0.7l0.1-0.2l0.1-0.1c0-0.1,0,0,0,0.1v0.3c0,0.2,0,0.5,0.1,0.8c0,0.1,0.1,0.3,0.1,0.6
					c0.1,0.6,0.2,1.1,0.4,1.6c0.6,2.2,1.3,4.1,2.1,6.1c0.7,1.9,1.4,3.9,1.8,5.8c0.4,1.9,0.3,3.9-0.2,5.9c-0.4,1.3,0.6,1.9,1.2,0.4
					l0,0c0.8-2,1-4.3,0.9-6.5C806.7,286.5,806.1,284.4,805.5,282.3z"/>
				<path class="st16" d="M789,281.9c-0.4-1.5-0.9-3-1.3-4.3c-1.2,4.2-2.3,8.6-3.1,12.4l-0.6,2.7c-0.1,0.6-0.1,1-0.2,1.6
					c-0.1,1-0.2,2.1-0.3,3.2c0,0.3,1,0.7,1.2,0.4l0,0c0.5-0.9,1-1.9,1.6-2.8l0.7-1.3c0.1-0.1,0.2-0.2,0.4-0.3
					c0.4-0.2,0.4,0.1,0.4,0.4v0.1l1,3.4c0.2,0.7,1.4,1,2.7,0.5l0,0c1.3-0.4,2.1-1.3,1.9-1.9L789,281.9z"/>
				<path class="st16" d="M734.6,290.3v-46.5v-5.8V235c0-1,0.1-1.9-0.1-3.1l-0.1-1.2h0.6l0.7,0.1l0.7,0.1c0.3,0,0.4,0.1,0.9,0.1h2.9
					h23.3c12.7,0,25.5-0.1,38.2-0.1l19.1-0.1l9.5-0.1h2.4c0.7,0,1.7,0,2.5-0.1c1.6-0.1,3.2-0.3,4.5-0.2c0.7,0,1.3,0.1,1.9,0.2
					c0.1,0,0.1,0,0.1,0c0.1,0,0.1,0,0.1,0l0.1,0.2c0.1,0,0.1,0.8,0.1,1.5c0,0.7,0,1.5-0.1,2.2c-0.1,1.6-0.3,3.1-0.3,4.9l0.1,4.8
					c0.1,6.3,0.2,12.7,0.3,19.1c0.2,12.7,0.5,25.3,0.7,38l0,0c0,0.1,0,0.2,0,0.4c-5-0.2-10-0.4-15-0.5c0.3-8.9,0.5-17.6,0.7-26.5
					c0.1-4.5,0.2-9.2,0.3-13.7l0.1-6.9l0.1-1.7v-0.9v-0.5c0-0.1,0-0.4-0.1-0.7c-0.1-1-0.5-2-1.4-2.6c-0.4-0.3-0.9-0.5-1.3-0.7
					c-0.3-0.1-0.4-0.1-0.5-0.1c-0.1-0.1-0.3-0.1-0.4-0.1c-9-2.2-18.2-3.8-27.4-4.4c-9.2-0.7-18.6-0.4-27.8,0.6
					c-2.8,0.3-5.7,0.7-8.4,1.2l-8.3,1.5l-2.1,0.4l-1,0.2l-0.6,0.1c-0.2,0.1-0.6,0.1-0.9,0.3c-0.7,0.2-1.3,0.5-1.7,1
					c-0.2,0.2-0.4,0.5-0.5,0.8l-0.2,0.4l-0.1,0.5c-0.1,0.3-0.1,0.7-0.1,1c0,0.3-0.1,0.4-0.1,0.7c0,0.4,0,0.8,0,1.2
					c0.1,1.6,0.2,3,0.4,4.3l0.1,1v0.4v0.5v2.1v33.5c0,2.4,0.2,4.5,0.5,6.2h-13.3C734.3,297.8,734.6,294.2,734.6,290.3z M854.3,301.9
					L854.3,301.9c-3.4-0.1-6.6-0.3-10-0.4c0-0.1,0-0.3,0-0.4l0,0c0.2-12.7,0.5-25.3,0.7-38c0.1-6.3,0.2-12.7,0.3-19.1l0.1-4.8
					c0-1.4,0.3-3,0.4-4.6c0.1-0.8,0.1-1.6,0.1-2.5c0-0.4,0-0.9-0.1-1.3c0-0.4-0.1-1.1-0.4-1.8c-0.3-0.6-0.5-1.3-1-1.8
					c-0.1-0.1-0.2-0.1-0.4-0.2s-0.3-0.1-0.4-0.1s-0.4-0.1-0.5-0.1c-0.2,0-0.4,0-0.5,0c-1-0.2-1.9-0.4-2.8-0.4
					c-1.8-0.1-3.4,0.1-4.9,0.1c-0.8,0.1-1.4,0.1-2.2,0h-2.4l-9.5-0.1l-19-0.2c-12.7,0-25.5-0.1-38.2-0.1h-23.2h-2.9l-1.3-0.1
					l-0.7-0.1l-0.8-0.1c-1,0-1.9-0.1-2.8,0.2c-0.4,0.1-0.7,0.4-1,0.6c-0.1,0.1-0.3,0.3-0.4,0.4c-0.1,0.1-0.2,0.3-0.3,0.5
					c-0.3,0.7-0.4,1.8-0.3,2.7c0,0.6,0.1,0.7,0.1,1l0.1,0.7c0.1,0.7,0,1.8,0.1,2.7v3.1v5.8v46.5c0,3.9,0.3,7.4,0.8,9.9h-1.2
					c-3.7,0-6.8,1-6.8,2.4c0,1.3,3.1,2.4,6.8,2.4H777c22.3,0,44.6-0.4,66.8-1.3c0.1,0,0.1,0,0.1,0c3.5-0.1,7-0.2,10.5-0.4l0,0
					C856,303.1,856,302,854.3,301.9z M750.7,300.2c0.4-1.6,0.5-3.8,0.5-6.2v-33.5v-2.1v-0.5c0-0.1,0-0.4,0-0.7l-0.1-1.1
					c-0.1-1.4-0.3-2.8-0.3-4c0-0.3,0-0.6,0-0.9c0-0.1,0-0.3,0-0.4l0.5-0.1l1-0.2l2-0.4l8.2-1.5c2.7-0.5,5.4-0.9,8.2-1.2
					c8.9-1,18-1.3,27-0.8c9,0.4,17.9,1.8,26.8,3.6c0.1,0,0.2,0.1,0.4,0.1l0.3,0.1c0.1,0,0.1,0,0.1,0.1c0.1,0.1,0.1,0.1,0.1,0.3
					c0,0.1,0,0.1,0,0.2v0.4v0.8v1.7l0.1,6.9c0.1,4.5,0.2,9.2,0.3,13.7c0.2,8.9,0.4,17.6,0.7,26.4c-16.7-0.5-33.4-0.7-50-0.7
					L750.7,300.2L750.7,300.2z"/>
			</g>
		</g>
	</g>
</g>
<g id="section-4">
</g>
<g id="footer">
</g>
<g id="logo_1_">
</g>
</svg>
