<?xml version="1.0" encoding="utf-8"?>
<!-- Generator: Adobe Illustrator 19.2.1, SVG Export Plug-In . SVG Version: 6.00 Build 0)  -->
<svg version="1.1" xmlns="http://www.w3.org/2000/svg" xmlns:xlink="http://www.w3.org/1999/xlink" x="0px" y="0px"
	 viewBox="0 0 56 64" style="enable-background:new 0 0 56 64;" xml:space="preserve">
<style type="text/css">
	.st0{display:none;}
	.st1{display:inline;}
	.st2{fill:#774084;}
	.st3{fill:#FFFFFF;}
	.st4{display:none;fill:#F2F2F9;}
	.st5{display:inline;opacity:0.25;}
	.st6{clip-path:url(#SVGID_6_);}
	.st7{opacity:0.6;clip-path:url(#SVGID_6_);fill:#050505;}
	.st8{display:none;clip-path:url(#SVGID_6_);}
	.st9{fill:#C6E0A6;}
	.st10{display:inline;fill:#C6E0A6;}
	.st11{fill:none;stroke:#558B2F;stroke-width:2;stroke-miterlimit:10;}
	.st12{fill:none;stroke:#C6E0A6;stroke-width:3;stroke-miterlimit:10;}
	.st13{fill:none;stroke:#C6E0A6;stroke-width:3;stroke-miterlimit:10;stroke-dasharray:19.6863,19.6863;}
	.st14{fill:#679F42;}
	.st15{opacity:0.7;}
	.st16{fill:none;stroke:#2E7D32;stroke-width:4;stroke-miterlimit:10;}
	.st17{fill:none;stroke:#679F42;stroke-width:2;stroke-miterlimit:10;stroke-dasharray:12,12;}
	.st18{fill:#FF5722;}
	.st19{fill:#3949AB;stroke:#0D47A1;stroke-miterlimit:10;}
	.st20{fill:#84280F;}
</style>
<g id="extra-stuff" class="st0">
</g>
<g id="main">
</g>
<g id="section-1">
</g>
<g id="section-2">
</g>
<g id="section-3">
</g>
<g id="section-4">
</g>
<g id="footer">
	<g>
		<g>
			<path class="st18" d="M51.8,15.8c-0.1-0.6-0.3-1.3-0.7-1.8c-0.3-0.6-0.7-1.1-1.1-1.6c-0.8-1-1.9-1.7-2.9-2.3
				C45,9,42.8,8.5,40.6,7.8c-0.3-0.1-0.5,0-0.5,0.1c0,0.1,0,0.3,0.3,0.4l0,0c2.1,0.9,4.3,1.7,6.1,2.9c0.9,0.6,1.7,1.3,2.3,2.1
				c0.3,0.4,0.5,0.9,0.8,1.3c0.2,0.4,0.3,0.9,0.4,1.4c0.3,2,0,4.3-0.8,6.1c-0.4,0.9-1.1,1.6-1.8,2c-0.3,0.2-0.8,0.3-1.2,0.3
				c-0.4,0-0.9-0.1-1.4-0.2c-1.3-0.3-2.6-0.7-3.8-1.2c-0.6-0.2-1.2-0.5-1.8-0.8c-0.6-0.3-1.1-0.7-1.5-1c-0.6-0.5-0.8-1.6-0.5-2.9
				c0.2-1.2,0.8-2.5,1.3-3.7c0.3-0.6,0.4-1.2,0.4-1.8c0.5,0,1-0.2,1.2-0.8c0.2-0.6-0.2-1.3-0.9-1.5c-2.9-1-5.9-1.5-9-1.8
				c-5-0.4-10.1,0.7-14.5,2.9c-0.3,0.1-0.1,0.6,0.2,0.5c0.4-0.1,0.8-0.2,1.2-0.3c-0.4,0.4-0.4,1.5,0.1,2.6c0.5,1.3,1.1,2.5,1.3,3.7
				c0.3,1.2,0.1,2.3-0.5,2.9c-0.4,0.3-1,0.7-1.5,1c-0.6,0.3-1.2,0.6-1.8,0.8c-1.2,0.5-2.5,0.9-3.8,1.2c-0.5,0.1-1.1,0.2-1.4,0.2
				c-0.4,0-0.8-0.1-1.2-0.3c-0.7-0.3-1.3-1.1-1.8-2c-0.9-1.8-1.1-4.1-0.8-6.1c0.1-0.5,0.2-1,0.4-1.4c0.2-0.5,0.4-0.9,0.8-1.3
				c0.6-0.8,1.4-1.5,2.3-2.1c1.8-1.2,4-2,6.1-2.9l0,0c0.3-0.1,0.4-0.3,0.3-0.4c0-0.1-0.2-0.2-0.5-0.1l0,0C13,8.5,10.7,9,8.6,10.1
				c-1.1,0.5-2.1,1.3-2.9,2.3c-0.4,0.5-0.8,1-1.1,1.6c-0.3,0.6-0.5,1.2-0.7,1.8c-0.3,1.2-0.3,2.5-0.2,3.7c0.1,1.2,0.4,2.5,0.9,3.7
				c0.5,1.2,1.4,2.4,2.7,3.1c0.7,0.3,1.4,0.5,2.2,0.5c0.8,0,1.4-0.1,2-0.3c1.5-0.3,2.9-0.8,4.2-1.3c0.7-0.3,1.3-0.6,2-0.9
				c0.7-0.3,1.3-0.7,2-1.3c0.2-0.1,0.3-0.3,0.5-0.5s0.3-0.4,0.4-0.6c0.1-0.2,0.2-0.4,0.3-0.7c0.1-0.2,0.1-0.4,0.2-0.7
				c0.1-0.9,0.1-1.8-0.1-2.5c-0.3-1.5-0.9-2.9-1.5-4.2c-0.4-1-1.1-1.6-1.6-1.8c4.1-0.9,8.2-1.1,12.4-0.8c2.4,0.2,4.8,0.6,7.1,1.3
				c-0.3,0.3-0.6,0.8-0.9,1.3c-0.6,1.3-1.2,2.6-1.5,4.2c-0.2,0.8-0.2,1.6-0.1,2.5c0,0.2,0.1,0.4,0.2,0.7c0.1,0.2,0.1,0.4,0.3,0.7
				c0.1,0.2,0.2,0.4,0.4,0.6c0.2,0.2,0.3,0.4,0.5,0.5c0.7,0.6,1.3,1,2,1.3s1.3,0.7,2,0.9c1.4,0.5,2.7,1,4.2,1.3
				c0.6,0.1,1.2,0.2,2,0.3c0.8,0,1.5-0.2,2.2-0.5c1.3-0.7,2.2-1.9,2.7-3.1c0.5-1.2,0.8-2.4,0.9-3.7C52.2,18.3,52.1,17,51.8,15.8z"/>
			<path class="st18" d="M39.7,8.1C35.1,7,30.3,6.6,25.7,7c-2.9,0.2-5.7,0.8-8.4,1.6c-0.7,0.2-1.3-0.1-1.6-0.7s0.2-1.3,0.9-1.5
				c2.9-1,5.9-1.5,9-1.8c5-0.4,10.1,0.7,14.5,2.9c0.1,0.1,0.2,0.2,0.1,0.3S39.9,8.2,39.7,8.1z"/>
			<path class="st18" d="M48.5,45c-0.2-0.8-0.3-1.5-0.5-2.3c-0.2-0.8-0.3-1.5-0.5-2.3c-0.8-3.1-2-6.1-3.9-8.7
				c-1-1.3-2.1-2.5-3.4-3.5c-1.3-1-2.6-1.9-4.2-2.5c-0.8-0.3-1.5-0.7-2.3-0.9v-0.9c0-0.5-0.3-1.1-0.9-1.6c0,0-0.5,0-0.6,0
				c-0.6,0.5-0.9,1.1-0.9,1.6v0.3c-1.6-0.3-3.3-0.4-5-0.2c-0.7,0.1-1.3,0.2-1.9,0.3v-0.4c0-0.5-0.3-1.1-0.9-1.6c0,0-0.5,0-0.6,0
				c-0.6,0.5-0.9,1.1-0.9,1.6v1l0,0c-1.8,0.6-3.5,1.5-5,2.6c-2.7,1.9-4.9,4.4-6.6,7.2C9.7,36.1,9,37.5,8.3,39l-0.4,1.2
				c-0.1,0.4-0.2,0.8-0.4,1.2c-0.2,0.8-0.4,1.6-0.6,2.3c-0.5,1.8-1.1,3.6-1.5,5.6c-0.2,1-0.4,2-0.4,3c-0.1,1,0,2.1,0.3,3.2
				c0.3,1.1,1.1,2.2,2.1,2.9c0.2,0.2,0.5,0.3,0.8,0.4C8.4,58.9,8.7,59,9,59.1c0.3,0.1,0.5,0.1,0.8,0.2c0.3,0,0.5,0.1,0.8,0.1
				c2.1,0.2,4-0.1,5.9-0.2c0.4,0,0.9-0.1,1.3-0.1h1.4h2.9h5.7h11.4c3.6,0,6.6-0.5,6.6-1.1c0-0.6-3-1.1-6.6-1.1H27.8H22h-2.9h-1.4
				c-0.5,0-1,0-1.5,0.1c-1.9,0.1-3.8,0.3-5.5,0.2C9.9,57,9,56.8,8.5,56.5c-0.6-0.3-1-0.9-1.2-1.6c-0.2-0.7-0.2-1.5-0.2-2.4
				c0.1-0.9,0.2-1.8,0.4-2.6c0.4-1.8,1-3.6,1.5-5.4c0.2-0.8,0.4-1.5,0.6-2.2l0.3-1.1l0.4-1.1c0.5-1.4,1.2-2.7,2-4
				c1.5-2.5,3.6-4.8,5.9-6.6s5.2-3,8.1-3.3c2.9-0.4,5.9,0.2,8.6,1.4c1.4,0.6,2.6,1.4,3.9,2.3c1.2,0.9,2.3,1.9,3.2,3.1
				c1.9,2.3,3.1,5.2,3.9,8.1c0.2,0.7,0.4,1.5,0.6,2.2c0.2,0.7,0.4,1.5,0.6,2.3c0.4,1.5,0.9,3,1.3,4.5c0.3,1.5,0.6,3,0.5,4.5
				c0,0.7-0.2,1.4-0.6,2.1c-0.4,0.6-1,1-1.6,1.2l0,0c-0.4,0.1-0.7,0.2-0.9,0.2c-0.2,0.1-0.3,0.1-0.3,0.2c0,0.1,0.1,0.1,0.3,0.2
				c0.2,0.1,0.5,0.1,1,0l0,0c0.8-0.2,1.6-0.7,2.1-1.4c0.5-0.7,0.7-1.5,0.8-2.4c0.2-1.6-0.1-3.2-0.3-4.8C49.3,48,48.9,46.5,48.5,45z"
				/>
			<path class="st18" d="M38.9,41.5c-0.3,0-0.6,0.4-0.9,1c-0.2,0.6-0.5,1.3-0.8,2.2c-0.5,1.7-1.6,3.3-3.1,4.3
				c-0.7,0.5-1.5,1-2.4,1.3c-0.9,0.3-1.8,0.5-2.7,0.7c-0.9,0.1-1.9,0.1-2.8,0c-0.9-0.1-1.8-0.3-2.7-0.7c-0.4-0.1-0.8-0.4-1.2-0.6
				c-0.4-0.2-0.8-0.5-1.1-0.8c-0.4-0.3-0.7-0.6-1-0.9c-0.3-0.3-0.6-0.7-0.8-1.1c-0.8-1.2-1.3-2.6-1.5-4.2c-0.2-1.5,0-3.1,0.4-4.5
				c0.4-1.4,1.3-2.7,2.4-3.7c1.1-1,2.5-1.8,3.9-2.2c1.5-0.5,3.1-0.6,4.6-0.5c1.5,0.1,3.1,0.6,4.5,1.3c1.4,0.8,2.6,1.9,3.4,3.2
				s1.3,2.9,1.4,4.5l0,0C38.6,41.2,38.7,41.5,38.9,41.5c0.1,0,0.3-0.2,0.3-0.7l0,0c0-1.7-0.4-3.4-1.2-5c-0.8-1.6-2.1-2.9-3.5-3.8
				c-1.5-1-3.2-1.6-4.9-1.8c-1.8-0.2-3.6-0.2-5.3,0.3c-1.7,0.5-3.4,1.3-4.8,2.5c-1.4,1.2-2.5,2.8-3.1,4.6c-0.6,1.8-0.8,3.6-0.6,5.4
				c0.2,1.8,0.8,3.6,1.9,5.2c0.3,0.5,0.7,0.9,1.1,1.3c0.4,0.4,0.8,0.8,1.3,1.1c0.4,0.4,0.9,0.7,1.4,1c0.5,0.2,1,0.5,1.5,0.7
				c1,0.4,2.1,0.7,3.2,0.8c1.1,0.2,2.2,0.1,3.3,0c1.1-0.1,2.2-0.4,3.3-0.8c1.1-0.4,2.1-0.9,3-1.6c1.9-1.3,3.2-3.3,3.9-5.5
				c0.3-1,0.3-2,0.2-2.7C39.5,41.9,39.2,41.5,38.9,41.5z"/>
			<path class="st18" d="M34.5,41.5c-0.3,0-0.6,0.2-0.8,0.5c-0.2,0.3-0.4,0.8-0.5,1.2c-0.3,1-0.9,1.8-1.7,2.4
				c-0.8,0.6-1.8,1-2.9,1.1c-2.1,0.2-4.3-0.6-5.4-2.2c-0.4-0.7-0.7-1.5-0.8-2.3c-0.1-0.9,0-1.8,0.2-2.5c0.2-0.8,0.7-1.5,1.3-2.1
				c0.6-0.6,1.4-1,2.2-1.3s1.8-0.4,2.6-0.3s1.8,0.3,2.6,0.7c0.8,0.4,1.5,1,2,1.8c0.5,0.8,0.8,1.7,0.9,2.7l0,0
				C34.2,41.3,34.4,41.5,34.5,41.5c0.1,0,0.3-0.1,0.3-0.4l0,0c0-1-0.2-2.1-0.7-3.1c-0.5-1-1.3-1.9-2.2-2.5c-0.9-0.6-2-1-3.1-1.2
				s-2.3-0.1-3.4,0.1c-1.1,0.3-2.2,0.8-3.1,1.6c-0.9,0.8-1.6,1.8-2,3c-0.4,1.1-0.5,2.3-0.4,3.5c0.1,1.2,0.5,2.4,1.2,3.4
				c0.4,0.6,0.9,1.2,1.5,1.6c0.6,0.4,1.2,0.8,1.9,1.1c0.7,0.3,1.4,0.4,2.1,0.5c0.7,0.1,1.4,0.1,2.1,0c1.4-0.1,2.8-0.7,4-1.5
				c1.2-0.9,2.1-2.2,2.5-3.6c0.2-0.7,0.2-1.3,0-1.8C35.1,41.7,34.8,41.5,34.5,41.5z"/>
		</g>
	</g>
</g>
<g id="logo_1_">
</g>
</svg>
