<?xml version="1.0" encoding="utf-8"?>
<!-- Generator: Adobe Illustrator 19.2.1, SVG Export Plug-In . SVG Version: 6.00 Build 0)  -->
<svg version="1.1" xmlns="http://www.w3.org/2000/svg" xmlns:xlink="http://www.w3.org/1999/xlink" x="0px" y="0px"
	 viewBox="0 0 105 105" style="enable-background:new 0 0 105 105;" xml:space="preserve">
<style type="text/css">
	.st0{display:none;}
	.st1{display:inline;}
	.st2{fill:#774084;}
	.st3{fill:#FFFFFF;}
	.st4{display:none;fill:#F2F2F9;}
	.st5{display:inline;opacity:0.25;}
	.st6{clip-path:url(#SVGID_6_);}
	.st7{opacity:0.6;clip-path:url(#SVGID_6_);fill:#050505;}
	.st8{display:none;clip-path:url(#SVGID_6_);}
	.st9{fill:#C6E0A6;}
	.st10{display:inline;fill:#C6E0A6;}
	.st11{fill:none;stroke:#558B2F;stroke-width:2;stroke-miterlimit:10;}
	.st12{fill:none;stroke:#C6E0A6;stroke-width:3;stroke-miterlimit:10;}
	.st13{fill:none;stroke:#C6E0A6;stroke-width:3;stroke-miterlimit:10;stroke-dasharray:19.6863,19.6863;}
	.st14{fill:#679F42;}
	.st15{opacity:0.7;}
	.st16{fill:none;stroke:#2E7D32;stroke-width:4;stroke-miterlimit:10;}
	.st17{fill:none;stroke:#679F42;stroke-width:2;stroke-miterlimit:10;stroke-dasharray:12,12;}
	.st18{fill:#FF5722;}
	.st19{fill:#3949AB;stroke:#0D47A1;stroke-miterlimit:10;}
	.st20{fill:#F4511E;}
</style>
<g id="extra-stuff" class="st0">
</g>
<g id="main">
</g>
<g id="section-1">
</g>
<g id="section-2">
	<g>
		<g>
			<path class="st14" d="M50.8,89.2V91c0,1,0.5,2,1.6,2.9c0.1,0.1,1,0.1,1.1,0c1-1,1.6-2,1.6-2.9v-1.8c0-0.1-1-0.3-2.1-0.3
				C51.8,88.9,50.8,89.1,50.8,89.2z"/>
			<path class="st14" d="M35.2,83.9l-0.9,1.6c-0.5,0.9-0.6,2-0.1,3.4c0,0.1,0.8,0.6,1,0.6l0,0c1.4-0.3,2.4-1,2.9-1.8l0.9-1.6
				c0.1-0.1-0.7-0.7-1.7-1.3l0,0C36.1,84.1,35.2,83.7,35.2,83.9z"/>
			<path class="st14" d="M21.4,76.3c1.4,0.4,2.6,0.4,3.5-0.1l1.6-1c0.1-0.1-0.3-1-0.8-2l0,0c-0.6-1-1.2-1.8-1.3-1.7l-1.6,1
				c-0.9,0.5-1.5,1.5-1.9,2.9C20.9,75.4,21.3,76.3,21.4,76.3z"/>
			<path class="st14" d="M16.2,57.1c-0.1,0.1-0.1,1,0,1.1c1,1,2,1.6,3.1,1.6h1.9c0.1,0,0.3-1,0.3-2.1s-0.1-2.1-0.3-2.1h-1.9
				C18.3,55.5,17.3,56,16.2,57.1z"/>
			<path class="st14" d="M22.7,42.7l1.6,1c0.1,0.1,0.7-0.7,1.3-1.7l0,0c0.6-1,1-1.9,0.8-2l-1.6-1c-0.9-0.5-2-0.6-3.5-0.1
				c-0.1,0-0.6,0.8-0.5,1l0,0C21.2,41.3,21.8,42.2,22.7,42.7z"/>
			<path class="st14" d="M37.9,27.6c-0.5-0.9-1.5-1.5-2.9-1.8c-0.1,0-0.9,0.4-1,0.6c-0.4,1.4-0.4,2.5,0.1,3.4l0.9,1.6
				c0.1,0.1,1-0.3,2-0.8s1.8-1.2,1.7-1.3L37.9,27.6z"/>
			<path class="st14" d="M55,26v-1.8c0-1-0.5-2-1.6-2.9c-0.1-0.1-1-0.1-1.1,0c-1,1-1.6,2-1.6,2.9V26c0,0.1,1,0.3,2.1,0.3
				C54.1,26.2,55,26.1,55,26z"/>
			<path class="st14" d="M70.7,31.3l0.9-1.6c0.5-0.9,0.6-2,0.1-3.4c0-0.1-0.8-0.6-1-0.6c-1.4,0.3-2.4,1-2.9,1.8L67,29.1
				c-0.1,0.1,0.7,0.7,1.7,1.3C69.7,31,70.6,31.4,70.7,31.3z"/>
			<path class="st14" d="M81.5,43.7l1.6-1c0.9-0.5,1.5-1.5,1.9-2.9l0,0c0-0.1-0.4-0.9-0.5-1l0,0C83,38.5,81.9,38.5,81,39l-1.6,1
				c-0.1,0.1,0.3,1,0.8,2l0,0C80.8,43,81.4,43.8,81.5,43.7z"/>
			<path class="st14" d="M89.6,58.2c0.1-0.1,0.1-1,0-1.1c-1-1-2-1.6-3.1-1.6h-1.9c-0.1,0-0.3,1-0.3,2.1s0.1,2.1,0.3,2.1h1.9
				C87.6,59.7,88.6,59.2,89.6,58.2z"/>
			<path class="st14" d="M79.4,75.2l1.6,1c0.9,0.5,2,0.6,3.5,0.1c0.1,0,0.6-0.8,0.5-1c-0.4-1.4-1-2.4-1.9-2.9l-1.6-1
				c-0.1-0.1-0.7,0.7-1.3,1.7C79.7,74.2,79.3,75.1,79.4,75.2z"/>
			<path class="st14" d="M68.8,85c-1,0.6-1.8,1.2-1.7,1.3l0.9,1.5c0.4,0.8,1.4,1.4,2.8,1.7c0.1,0,0.9-0.4,1-0.6
				c0.4-1.3,0.4-2.4-0.1-3.3l-0.9-1.5C70.8,83.9,69.9,84.3,68.8,85z"/>
			<path class="st14" d="M75.4,57.1L75.4,57.1c-3.8-0.4-7.5-0.3-11.1-0.3c-1.8,0-3.6-0.1-5.3-0.2c-0.8-0.1-1.7-0.2-2.4-0.4
				c-0.3-0.1-0.7-0.2-1-0.3c-0.1-0.1-0.3-0.1-0.4-0.2l0,0c0,0-0.2-0.3-0.3-0.7s-0.2-0.8-0.3-1.3c-0.1-1-0.1-2-0.1-3.1
				c0.1-2.2,0.3-4.4,0.4-6.7c0.1-1.1-0.9-2.1-2-2c-1.2,0-2.1,0.8-2.2,1.8c-0.1,2.2-0.3,4.5-0.4,6.8c0,1.2,0,2.4,0.1,3.6
				c0.1,0.6,0.2,1.3,0.4,2c0.2,0.7,0.5,1.5,1.2,2.3c0.3,0.3,0.7,0.6,1.1,0.8c0.3,0.1,0.6,0.3,0.9,0.4c0.3,0.1,0.6,0.2,0.8,0.3
				c0.3,0.1,0.6,0.1,0.8,0.2c1.1,0.2,2.1,0.3,3.1,0.3c2,0,3.9-0.1,5.8-0.4c3.7-0.5,7.3-1.5,10.9-2.1C75.9,58.1,75.9,57.1,75.4,57.1z
				"/>
			<path class="st14" d="M98.7,62c-0.3-2.7-0.7-4.3-1.3-4.3c-0.6,0-1.2,1.6-1.7,4c-0.3,1.2-0.8,2.6-1.1,4.2
				c-0.2,0.8-0.5,1.6-0.8,2.4c-0.3,0.8-0.4,1.7-0.8,2.6l-1,2.8c-0.4,0.9-0.8,1.8-1.3,2.7L90,77.8l-0.8,1.3c-0.5,0.8-1,1.7-1.6,2.5
				c-2.3,3.2-5,6.1-8,8.6c-3.1,2.4-6.5,4.6-10,6.1c-0.9,0.4-1.9,0.7-2.8,1.1l-1.4,0.5c-0.4,0.2-1,0.3-1.4,0.4l-2.9,0.8l-2.9,0.4
				c-0.5,0.1-1,0.2-1.5,0.2l-1.5,0.1c-1,0-2,0.1-2.9,0.1c-2-0.1-4-0.1-5.9-0.5L45,99.2L44.3,99l-0.7-0.2l-2.9-0.8
				c-1-0.3-1.9-0.6-2.8-1l-1.4-0.5c-0.4-0.2-0.9-0.4-1.3-0.6c-0.9-0.4-1.8-0.8-2.6-1.3l-2.5-1.5c-0.9-0.4-1.6-1.2-2.4-1.7
				c-0.8-0.6-1.6-1.2-2.3-1.9l-2.2-2c-0.7-0.7-1.3-1.5-2-2.2c-0.3-0.4-0.6-0.7-1-1.1l-0.9-1.2c-0.6-0.8-1.2-1.5-1.7-2.4
				c-3.5-5.4-5.9-11.6-6.7-18c-0.2-0.8-0.2-1.6-0.2-2.4L10.6,58c-0.1-0.8,0.1-1.6,0.1-2.4c0.1-0.8,0.1-1.6,0.1-2.4l0.4-2.4
				c0.1-0.8,0.2-1.6,0.4-2.4c0.4-1.5,0.7-3.1,1.3-4.7c2.2-6.1,5.7-11.7,10.4-16.3c4.7-4.5,10.3-8.1,16.4-10.2
				c6.1-2.2,12.8-2.8,19.3-1.9c6.5,0.9,12.7,3.2,18.2,6.8c5.4,3.7,10.1,8.6,13.5,14.2c3.5,5.6,5.5,12.2,6,18.8l0,0
				c0.3,3.5,1.2,3.5,1.1-0.1l0,0c-0.3-6.8-2.1-13.6-5.5-19.6c-1.6-2.9-3.6-5.6-5.8-8.1l2.2-2.2c0.9-0.9,1.7-2,2.2-3.3
				c1.4,1,2.9,1.9,4.6,2.6c0.2,0.1,0.8-0.6,0.8-0.8c-1.1-2.6-2.5-4.7-4.4-6.5l-3.3-3.3c-0.3-0.3-1.2,0.2-2,1c-0.8,0.8-1.3,1.7-1,2
				l3.1,3.1c-1.2,0.6-2.2,1.2-3.1,2.1l-2.2,2.2c-1.5-1.5-3.2-2.9-5-4.2c-5.7-4-12.3-6.7-19.2-7.8c-1.4-0.2-2.8-0.4-4.2-0.4v-3
				c0-1.3-0.3-2.6-0.7-3.9c3.1-0.2,6.2-0.7,9.3-1.5c0.3-0.1,0.3-1,0-1.1c-4.2-1-8.5-1.6-12.7-1.6h-7.7c-0.6,0-1.1,1-1.1,2.1
				S42.7,5,43.2,5h7.8c0.2,0,0.4,0,0.6,0c-0.4,1.3-0.7,2.5-0.7,3.8v2.9c-4.2,0.1-8.3,0.8-12.3,2.2c-6.7,2.2-12.9,5.9-18,10.7
				s-9,10.9-11.5,17.6c-0.7,1.7-1.1,3.4-1.5,5.1c-0.3,0.8-0.4,1.7-0.5,2.6l-0.4,2.6c-0.1,0.9-0.1,1.8-0.2,2.7
				c-0.1,0.9-0.1,1.8-0.1,2.7l0.1,2.7c0.1,0.9,0.1,1.8,0.3,2.6c0.9,7,3.5,13.9,7.4,19.8c0.6,0.9,1.3,1.7,1.9,2.6l1,1.3
				c0.4,0.4,0.7,0.8,1.1,1.2c0.8,0.8,1.4,1.6,2.2,2.4l2.4,2.2c0.8,0.8,1.7,1.3,2.6,2c0.9,0.6,1.7,1.3,2.6,1.9l2.8,1.7
				c1,0.5,1.9,1,2.9,1.5c0.5,0.3,1,0.5,1.5,0.7l1.5,0.6c1,0.4,2,0.8,3.1,1.1l3.1,0.8l0.8,0.2l0.8,0.1l1.6,0.3
				c2.1,0.4,4.3,0.4,6.5,0.6c1.1,0.1,2.2-0.1,3.3-0.1l1.6-0.1c0.5,0,1.1-0.1,1.6-0.2l3.2-0.5l3.1-0.8c0.5-0.1,1.1-0.3,1.5-0.4
				l1.5-0.6c1-0.4,2-0.7,3-1.2c4-1.7,7.6-4.1,11.1-6.8c3.3-2.8,6.3-6,8.8-9.5c0.6-0.9,1.2-1.9,1.7-2.8l0.8-1.4l0.7-1.5
				c0.4-1,1-1.9,1.4-2.9l1.2-3.1c0.4-1,0.6-1.9,0.8-2.9c0.2-1,0.4-1.9,0.6-2.8C98.6,64.9,98.7,63.3,98.7,62z"/>
		</g>
	</g>
</g>
<g id="section-3">
</g>
<g id="section-4">
</g>
<g id="footer">
</g>
<g id="logo_1_">
</g>
</svg>
