<?xml version="1.0" encoding="utf-8"?>
<!-- Generator: Adobe Illustrator 19.2.1, SVG Export Plug-In . SVG Version: 6.00 Build 0)  -->
<svg version="1.1" id="Layer_1" xmlns="http://www.w3.org/2000/svg" xmlns:xlink="http://www.w3.org/1999/xlink" x="0px" y="0px"
	 viewBox="0 0 256 256" style="enable-background:new 0 0 256 256;" xml:space="preserve">
<style type="text/css">
	.st0{fill:#4F1249;}
	.st1{fill:none;stroke:#4F1249;stroke-width:6;stroke-miterlimit:10;}
</style>
<g>
	<g>
		<g>
			<g>
				<g>
					<path class="st0" d="M253.6,127.1c0,1.2,0.8,0.7,0.9,0.9C254.3,126,253.4,127.1,253.6,127.1z"/>
					<polygon class="st0" points="250.2,108.2 250.6,108.5 249.2,105.9 					"/>
					<path class="st0" d="M246.1,91c-0.9,2,2.1,6.1,2.2,9.3l-0.2,0.6l1.4,1.1c-0.5-1.9-1.2-4-1.9-5.9
						C246.9,94.2,246.3,92.3,246.1,91z"/>
					<path class="st0" d="M245.8,80.9c-0.3,0.8-1.2-1.8,0.7,2.2c0-0.2,0-0.3,0-0.4C246.3,82.3,246.1,81.8,245.8,80.9z"/>
					<path class="st0" d="M246.4,82.7C247.2,84.4,246.4,81.3,246.4,82.7L246.4,82.7z"/>
					<path class="st0" d="M242.7,74.7l1.5,2.1c0.1-0.6-0.8-2.7-0.2-2C242.7,72.5,242.6,73.1,242.7,74.7z"/>
					<path class="st0" d="M240.8,73c0,0,0.2,0.3,0.4,0.5c0.2,0.3,0.4,0.5,0.4,0.5C241.5,73.8,241.5,73.4,240.8,73z"/>
					<path class="st0" d="M243.1,76.4l-1.5-2.3c-0.1,0.4-0.5,0.7,0.7,1.1C241.7,75.1,242.3,75.4,243.1,76.4z"/>
					<path class="st0" d="M243.5,77.9c0.3,1.4,0.8,3.1-0.6,1c1,2.1,1.6,3,1.8,2.7C244.8,81.4,244.6,80,243.5,77.9z"/>
					<path class="st0" d="M244.4,90.6c0,0,0,0.5,0.1,0.9c0,0.5,0.1,0.9,0.1,0.9l0.9,1.4c-0.2-0.3-0.4-1.2-0.5-2
						C244.8,91.1,244.6,90.5,244.4,90.6z"/>
					<path class="st0" d="M235.9,60.5c-0.3,0-0.2,1.1-0.5,1.5c0,0,0.3,0.3,0.6,0.7c0.3,0.4,0.6,0.7,0.6,0.7
						C236.4,62.5,235.6,60.9,235.9,60.5z"/>
					<path class="st0" d="M235.4,62l-1.9-2C234.8,62.1,235.2,62.4,235.4,62z"/>
					<path class="st0" d="M239.1,73.3c0,0,0.8,0.9,1.5,1.8c0.7,0.9,1.4,1.8,1.4,1.8s-0.8-1.1-1.6-2.2c-0.4-0.6-0.8-1.1-1.2-1.5
						c-0.3-0.4-0.5-0.7-0.5-0.7L239.1,73.3z"/>
					<path class="st0" d="M229.9,51.7c0,0,0.4,0.2,0.7,0.4c0.4,0.2,0.7,0.4,0.7,0.4s-0.6-0.4-1.2-0.8c-0.6-0.4-1.3-0.8-1.3-0.8
						L229.9,51.7z"/>
					<path class="st0" d="M225.4,46.3c1.2,0.5-0.3-1.9,0.8-1.1c-1.4-1.4-2.8-2.3-4.1-3.1C223.3,43,224.3,44.3,225.4,46.3z"/>
					<path class="st0" d="M219.8,40.6c0.6,0.5,1.4,0.9,2.2,1.3C221.4,41.5,220.7,41,219.8,40.6z"/>
					<path class="st0" d="M231,56c0-0.3,0.2-0.9-0.6-2.3l-0.1,1.4C230.6,55.4,230.8,55.7,231,56z"/>
					<path class="st0" d="M230.4,55.2L230.4,55.2c-0.7-1-1.1-1.7-1.3-2C229.2,53.4,229.6,54,230.4,55.2z"/>
					<path class="st0" d="M231.1,56.2c-0.1-0.1-0.1-0.1-0.2-0.2C231,56.2,231,56.2,231.1,56.2z"/>
					<path class="st0" d="M236.5,66.6c-1.2-1.2-3.3-3.8-2.3-0.6C235.2,66.7,234.6,64.9,236.5,66.6z"/>
					<path class="st0" d="M231,57.9c0,0,0.1,0.2,0.2,0.4c0.1,0.2,0.3,0.6,0.5,0.9c0.4,0.6,0.7,1.3,0.7,1.3c0.2-0.2,0.2-0.8,0.8-0.2
						c0,0-0.5-0.6-1.1-1.2c-0.3-0.3-0.5-0.6-0.8-0.8C231.2,58.1,231,57.9,231,57.9z"/>
					<polygon class="st0" points="230,56.9 231,57.9 230.5,57 					"/>
					<path class="st0" d="M222.7,44.9c-0.6-0.4-1.1-0.8-1.6-1.3c-0.5-0.5-1-1-1.6-1.5c1.1,1.3,2.1,2.7,3.2,3.9
						C223,46,223.9,46.3,222.7,44.9z"/>
					<path class="st0" d="M226.5,49.8c-0.1-0.1-0.2-0.1-0.2-0.2C226.3,49.8,226.4,50,226.5,49.8z"/>
					<path class="st0" d="M208.3,31.5c0,0.1,0.1,0.2,0.1,0.3c0,0,0.1-0.1,0.1-0.1L208.3,31.5z"/>
					<path class="st0" d="M222.7,46.3c0.7,1.1,1.3,1.5,2,1.9c-0.7-0.7-1.4-1.4-2.1-2.2C222.5,46,222.4,46.1,222.7,46.3z"/>
					<path class="st0" d="M216.5,37.8c0.4,0.6,0.8,1.2,1.2,1.9C217.5,39,216.9,37.8,216.5,37.8z"/>
					<path class="st0" d="M226.2,49.2c0,0,0.1,0.1,0.1,0.1C226.2,48.9,226.2,49,226.2,49.2z"/>
					<path class="st0" d="M226.2,49.2c-0.5-0.4-1-0.7-1.4-1c0.5,0.6,1,1.1,1.5,1.5C226.2,49.5,226.2,49.3,226.2,49.2z"/>
					<path class="st0" d="M201.3,33c0.3-0.2,1.2,0,2.3,0.6c0.5,0.3,1.1,0.7,1.6,1.1c0.5,0.5,1,1,1.3,1.6c2.4,1.3,2.8-1.8,1.9-4.5
						c-0.3,0.2-0.5,0.4-3-1c0.6,0.9,4.2,4.8,1.9,3.8c-1.5-1.1-2.1-1.6-2.4-2.1c-0.3-0.5-0.4-0.9-0.9-1.6c0.3,0.9-0.9,0.4-2.1,0
						c-1.2-0.5-2.7-0.8-2.7,0c0,0,0.2,0.1,0.5,0.2c0.3,0.1,0.6,0.3,1,0.5c0.7,0.4,1.4,0.8,1.4,0.8C201.9,32.7,200.7,32.3,201.3,33z"
						/>
					<path class="st0" d="M212.5,35.5l0.9,0.7c-0.9-1.1-1.4-1.9-2.4-3.6c-1.8-1-2.3-1.1-2.5-0.9c0,0,1.1,1,2.2,2
						c0.5,0.5,1.1,1,1.5,1.3c0.4,0.4,0.7,0.6,0.7,0.6L212.5,35.5z"/>
					<path class="st0" d="M217.3,40c-1.2-0.1-3.6-1.7-3,0.1c2.5,2.4,2.2,1.2,3.9,2.4c-4-3.9,1.5,0.8-1-2.4c0.9,0.7,1.6,1.4,2.3,2
						c-0.6-0.8-1.2-1.6-1.7-2.4c0,0.1,0,0.1,0.1,0.1l0,0c0,0,0,0,0,0c0.1,0.3,0.1,0.4,0,0.1c0,0-0.1-0.1-0.1-0.1
						C217.6,40,217.4,40,217.3,40c-1-1.3,0-0.3,0.4,0c0,0,0.1,0,0.1,0c0,0,0,0,0,0c0,0-1.1-1-2.2-1.8c-1.1-0.9-2.2-1.8-2.2-1.8
						C214.2,37.2,215.3,38.1,217.3,40z"/>
					<path class="st0" d="M231,64.4c0-0.2,0-0.2,0.1-0.3C230.8,63.9,230.7,63.9,231,64.4z"/>
					<path class="st0" d="M230.3,62.3c0.3,0.3,0.8,0.4,1.4,1.5c0.4,1.1-0.4,0.2-0.6,0.4c0.6,0.5,2,2,1-0.3l-0.3-0.3
						c-0.9-2-1.6-5-1.3-4.8C230.3,59.8,230.1,60.6,230.3,62.3z"/>
					<path class="st0" d="M224.1,50.9c0,0-0.2-0.2-0.5-0.5c-0.3-0.3-0.7-0.7-1.1-1.1c-0.8-0.8-1.7-1.6-1.7-1.6l1,2.2l0.3-0.4
						C223.6,51.6,223.6,50.8,224.1,50.9z"/>
					<path class="st0" d="M208.2,30.9l1.1-0.3c0,0-0.7-0.2-1.5-0.4c-0.7-0.2-1.5-0.3-1.5-0.3L208.2,30.9z"/>
					<path class="st0" d="M203.3,27.2l0.7-0.5c0,0-0.4-0.2-0.8-0.3c-0.4-0.1-0.8-0.3-0.8-0.3L203.3,27.2z"/>
					<path class="st0" d="M28.2,187.1l0.8,1C28.6,187.6,28.4,187.3,28.2,187.1z"/>
					<path class="st0" d="M23.8,179l-0.5,0C23.7,179.2,24,179.3,23.8,179z"/>
					<path class="st0" d="M61.8,21.1c-2.1,0.5-4.6,0.7-3.9,1.3l1,0.4C60,21.9,61,21.4,61.8,21.1z"/>
					<path class="st0" d="M9.8,104.3c0.1-0.2,0.2-0.3,0.4-0.5c-0.2-0.5-0.4-1-0.5-1.4C9.7,102.9,9.7,103.6,9.8,104.3z"/>
					<path class="st0" d="M13.1,106.3l-1,2.3C12.4,108.1,12.7,107.4,13.1,106.3z"/>
					<path class="st0" d="M62.9,222.9c0,0,0.4,0,0.8,0.1c0.4,0,0.9,0,0.9,0C62.7,221.8,63.3,222.7,62.9,222.9z"/>
					<path class="st0" d="M145.9,3.8c-1.7-0.6-3-0.9-4.2-1.1C143.7,3.5,145.2,4.4,145.9,3.8z"/>
					<path class="st0" d="M18.3,188.4c0.6,0.7,0.9,0.9,1,0.8C18.8,188.5,18.4,188.1,18.3,188.4z"/>
					<path class="st0" d="M136.6,2.3c0.3,0.1,0.6,0.2,0.9,0.3c1.3,0,2.6-0.1,4.1,0.1C140.1,2.1,138.4,1.8,136.6,2.3z"/>
					<path class="st0" d="M224,192.8c0.1-0.1,0.2-0.2,0.3-0.3C224.3,192.4,224.2,192.5,224,192.8z"/>
					<path class="st0" d="M251.5,144.6c0,0.6-0.1,1.5-0.2,2.3C251.3,146.5,251.4,145.8,251.5,144.6z"/>
					<path class="st0" d="M182.4,14.1C183.6,14.6,182.6,14.1,182.4,14.1L182.4,14.1z"/>
					<path class="st0" d="M186.4,20c-0.3,0-0.5,0-0.7,0.1C186,20,186.2,19.9,186.4,20z"/>
					<path class="st0" d="M123.8,7.5c0,0-0.1,0-0.1,0C124.1,7.6,124.1,7.6,123.8,7.5z"/>
					<path class="st0" d="M184,15.3c-0.4-0.3-0.8-0.7-1.4-1C182.8,14.5,183.2,14.8,184,15.3z"/>
					<path class="st0" d="M183.9,14.8c0.4,0.2,0.7,0.4,1,0.6C185.1,15.4,185,15.2,183.9,14.8z"/>
					<path class="st0" d="M180.7,13.4c0.7,0.3,1.3,0.6,1.9,1c-0.2-0.2-0.3-0.2-0.2-0.2C182.1,13.9,181.6,13.7,180.7,13.4z"/>
					<path class="st0" d="M143.5,245.1c0.1,0,0.2,0,0.3,0C145,244.6,144.4,244.8,143.5,245.1z"/>
					<path class="st0" d="M42.4,48.6c0,0,0-0.1,0.1-0.1C42.5,48.5,42.4,48.6,42.4,48.6L42.4,48.6z"/>
					<path class="st0" d="M40,52.3c0.4-2.1,1.2-2.8,2.3-3.7c0,0-0.7-0.2-1.4-0.3c-0.7-0.2-1.4-0.3-1.4-0.3s0.1,1.1,0.3,2.2
						C39.9,51.2,40,52.3,40,52.3z"/>
					<path class="st0" d="M41.4,204.8L40,202c3.3,1.9,4.7,4.1,3.7,1.3c-0.6,0.4-1.3,0-2.2-0.7c-0.9-0.7-1.9-1.8-2.8-2.9
						c-0.9-1.1-1.8-2.2-2.7-3c-0.8-0.8-1.5-1.2-2.2-0.9l-0.7-2c0.3,0.5,0.5,0.5,0.8,0.9c-1.2-3.9-3.3-1.2-5.7-5.7
						c-0.7-1.6-1-2.9-0.1-2l-2.5-3c-0.5-1,0-1,0.5,0c0,0-0.2-0.3-0.5-0.8c-0.3-0.5-0.6-1.1-1-1.8c-0.7-1.3-1.4-2.6-1.4-2.6l0.1,0
						c-0.8-0.6-2.1-2.1-2.8-2.8c-0.3-1.5,0.6,0.6,0.7,0.1c0,0-0.5-0.7-1-1.4c-0.2-0.3-0.5-0.7-0.7-0.9c-0.2-0.3-0.3-0.4-0.3-0.4
						c0.1-0.8,0.5-0.6,1,0.1c0.6,0.6,1.2,1.7,1.6,2.8c0.6-2,0.2-2.5-0.6-3.4c-0.7-0.9-1.7-2.2-2.1-5.6c0,0,0.1,0.2,0.2,0.4
						c0.1,0.3,0.3,0.6,0.5,0.9c0.4,0.7,0.7,1.4,0.7,1.4c0.4-1.2,0.2-2.3-0.1-3.5c-0.2-1.3-0.6-2.7-0.7-4.4c-0.2,0.9-0.1,7.3-1.8,4.2
						c-0.1-1-0.5-2.3-1.6-4c0.9-0.3,0.2-2-0.5-4.3l1.3-0.2c-0.5-1.2-0.9-1.7-1.3-2c-0.4-0.4-0.7-0.6-1.2-1.3c-0.5-2.8,0.3-3.6,1-4.4
						c-0.6-4.4-1,3.4-2.2-1.8c0-0.9-0.1-1.8-0.3-2.6c-0.1-0.8-0.2-1.6-0.4-2.5c-0.4-1.7-1-3.4-1.5-5.6c0.2-2.7,0.8,0.4,1.1-0.6
						l-1.2-2.3c0-0.6,0.3-0.4,0.5-0.3c-0.5-2-1.3-0.1-1.7-3.2c-0.7-0.4-0.3-2,0.2-4c0.6-2,1-4.3,0.4-6.3c0.4-0.9,0.7,0.5,1.3,0.2
						c-0.3-2.7-0.4-3.8-0.6-4.8c-0.1-1-0.3-1.9-0.7-4.2c0,0,0.3-0.9,0.7-1.8c0.3-0.9,0.7-1.8,0.7-1.8c-1.4,2.5-1.9-1.1-2.3-4.3
						c-0.6,0.9-1.2,1.7-1.5,2.2c0,0,0.1-1.3,0.1-2.6c0-0.6,0.1-1.3,0.1-1.8c0-0.5,0.1-0.8,0.1-0.8c0.3-0.6,0.7,0,1,1
						c0-0.4-0.1-0.7-0.1-1c0.9-1.7,1.4-0.6,1.8,0.8c-0.4,0.5-0.8,1.1-1.2,1.6c0.5,1.4,1.2,2.6,2,2.5c-0.1-0.3-0.1-1-0.1-1.6
						c0.2,0.4,0.3,0.6,0.5,0.5c0.2-0.1-0.1-0.7-0.2-1.5l1.6-0.8l-0.5-0.4c0,0,0.6-1.5,1.1-3c0.3-0.8,0.6-1.5,0.9-2
						c0.2-0.5,0.4-0.9,0.4-0.9c0-1.2-0.1-2.4-0.2-3.6c0-1.2-0.1-2.4,0-3.7c0-0.7,0-1.3,0.1-2c0.1-0.7,0.2-1.4,0.3-2.2
						c0.3-1.5,0.6-3.1,1.2-4.9c0.2,2.1,1.4,1,2.5,1.6c-1,0.6-1.4,2-1.7,3.6c-0.2,0.8-0.4,1.7-0.5,2.6c-0.2,0.9-0.4,1.8-0.8,2.7
						c0.8-1.8,1.2-1.2,1.2-0.7c0,0,0.1-0.4,0.2-1c0.1-0.6,0.2-1.5,0.4-2.3c0.3-1.7,0.7-3.3,0.7-3.3c0.9,0.5,1.2-1,2.3-2.4
						c-1.2,0.2-1-1.1-0.4-2.7c0.1-0.4,0.3-0.9,0.5-1.3c0.2-0.4,0.4-0.9,0.6-1.3c0.4-0.9,0.7-1.7,0.9-2.4c0.7,0.2,1,1.1-0.7,3.9
						C24,75.7,24,74.4,24,73c0-1.3,0-2.7,1.5-3.9c-0.4,0.7-0.7,1-0.6,1.5c0.2-1,1-2.4,1.7-3.5c0.7-1,1.5-1.6,1.4-1l-0.4,0.7
						c0.8-1.1,1.7-2.5,2.7-4c1-1.5,2.1-3.1,3-4.6c0.9-1.5,1.8-2.9,2.4-4c0.6-1.1,0.8-2,0.6-2.4c0.2,0.1,1.1,1.8,1.2,2.3
						c0,0,0.1-0.7,0.3-1.7c0.2-1,0.4-2.4,0.7-3.8c0.2-1.4,0.6-2.8,0.8-3.8c0.3-1,0.4-1.7,0.4-1.7c0.5,1.6,5.2,1.7,2.7,5.5
						c0.5-0.4,1.1-0.8,1.7-1.5c0.6-0.6,1.3-1.5,2.1-2.6c-0.8,0.4-3.1,0-2.3-0.9c3.5-1.1,2.3-1,6.2-2.7c-1.2,0.6-1.6-2,0-3.4
						c0,0.5,1.6,1.6,1.2,2.3c0,0,0.6-1.3,1.2-2.5c0.3-0.6,0.7-1.2,0.9-1.7c0.3-0.5,0.4-0.8,0.4-0.8c-0.8,1.1,1,1.6,2.3,1.4
						c-0.3,0,0.5-0.7,1.6-1.5c1.1-0.8,2.4-1.6,2.9-2.1l-2.1,0.8c2.5-1.5,3.2-3.1,3.9-4.5c0.4-0.7,0.8-1.5,1.4-2.2
						c0.6-0.7,1.4-1.5,2.7-2.2c-0.4,0.8,0,3.3,2.6,2.1c0.3-0.8,0.9-2.8,2-4.9c1.2-2.1,2.8-4.5,5.1-6l1.2,0.2c0,0,0.9-0.6,1.7-1.2
						c0.4-0.3,0.9-0.6,1.2-0.8c0.3-0.2,0.6-0.3,0.6-0.3c-0.9,1.2-2.6,3.5-4.3,5.7c-0.9,1.1-1.7,2.3-2.6,3.4c-0.8,1.1-1.6,2-2.3,2.8
						c2.2-0.5,0.9,0.4,3.7-1.1c1.3,0-1.1,1.6-2,2.1c0,0,1.7-0.8,3.4-1.5c0.8-0.4,1.7-0.7,2.4-1c0.7-0.3,1.1-0.4,1.1-0.4
						c-0.4-0.5,0.7-1.4,1.9-2.3c1.2-0.8,2.5-1.6,2.1-2.1c0,0-0.4,0.3-1.1,0.7c-0.3,0.2-0.7,0.4-1.1,0.7c-0.4,0.3-0.8,0.6-1.3,0.9
						c-1.7,1.2-3.4,2.3-3.4,2.3c-0.4-0.5,0.2-1.9,1.7-3.4c0.7-0.7,1.6-1.5,2.7-2.2c1.1-0.7,2.3-1.3,3.6-1.7c1.5,0-0.1,2.6,0.2,3
						c0.2-0.3,1.3-1.1,2.5-1.6c1.1-0.5,2.3-0.9,2.6-0.9l-1.9,1.4c1.5-0.2,2.5-1,3.6-1.8c1.1-0.7,2.4-1.3,4.3-1.2
						c1.2-0.3,4,0.8,4-0.1c-2.3-1-3.9-5.5-2.8-7c0.2,0,2,0,3.9,0c0.9,0,1.9,0.1,2.8,0.2c0.8,0.1,1.5,0.2,1.9,0.3
						c2.3,0.8-2.6,3.4-0.6,4.1c0-0.4,1-1,1.5-1.2c1.3,0.1-0.3,1.2,2.4,0.6c0.3-1.4,5.8-0.6,1.2-1.3c1.4-0.4,2.1-0.4,2.9-0.4
						c0.8,0,1.7,0,3.3-0.1c-0.6-0.4,0.1-1.2,1.3-2c1.2-0.8,2.9-1.6,4.3-1.8c-0.2,0.4,0.5,0.8,0.8,1c1.5,0,2.8,0,4,0.1
						c1.2,0.1,2.3,0.2,3.4,0.3c1.1,0.1,2.2,0.2,3.3,0.3c1.1,0.1,2.3,0.3,3.7,0.4c0.5,0.4,3,1,1.9,1.5c0.8-0.1,1.5-0.5,3.2-0.3
						c3,1.6-3.7-0.3-1.4,1.4c0.3-0.7,4.4-0.6,6.8-0.6c-0.3-0.6-1.6-1-3.2-1c-1.6,0-3.4,0.1-4.6,0.2c0.1-0.8,1.2-1.6,3-2.1
						c0.9-0.3,2-0.5,3.3-0.6c1.2-0.1,2.6-0.1,4.1,0c2.3,0.2,2.7,0.6,2.7,0.9c0,0.3-0.5,0.5-0.1,0.5c2.1,0.6,3.6,0.8,4.9,0.8
						c1.2,0.1,2.2,0,3-0.1c0.9-0.1,1.7-0.1,2.8,0c1,0.2,2.2,0.6,3.9,1.5c2.4,1.9-0.6,2.1-0.2,3c-1.8-0.4-3.1-1-4.3-1.6
						c-1.2-0.6-2.2-1.1-3.4-1.4l2.8,1.3c-1.2,0-3.7-0.4-4.9-1.1c0.5,0.4,1.6,0.8,3.1,1.3c0.7,0.2,1.6,0.5,2.5,0.8
						c0.9,0.3,1.8,0.6,2.8,1c1,0.3,2,0.7,3,1.1c1,0.4,2,0.8,2.9,1.2c1.9,0.8,3.7,1.7,5.1,2.6c1.2,0.1,3.2,0.6,2.5-0.1l-2-0.7
						c-1.4-1.6,4.1,0.5,1.9-0.9c1.4,0.3,2.9,0.7,4.5,1.2c0.8,0.3,1.6,0.6,2.4,1c0.8,0.4,1.6,0.9,2.4,1.5l0,1.4
						c0.1-0.3-1.9-1.9-3.1-2.2c0.9,0.2,2,1.3,3.2,2.3c0.6,0.5,1.2,1,1.8,1.3c0.6,0.4,1.2,0.5,1.8,0.5c0,0-0.5-0.6-1-1.1
						c-0.2-0.3-0.5-0.6-0.7-0.8c-0.2-0.2-0.3-0.3-0.3-0.3c1.4,0.4,3,0.9,4.6,1.6c1.6,0.6,3.2,1.5,4.6,2.7c-0.6-1.9-0.7-0.4-2.1-3
						c0.9,2.7-7.8-5.1-5.7-1.6c-0.7-1.4-1.6-2.1-2.6-2.8c-1-0.7-2.1-1.5-3.3-2.9c-0.1,0.4,0.7,1.2-1.9-0.3c-0.2,0-0.5,0-0.8,0
						c-0.1-0.1-0.1-0.1-0.2-0.1c0,0,0.1,0.1,0.1,0.1c-0.1,0-0.2,0,0,0c0.6,0.5,1,0.9,1.1,1.3c-0.9,0.1-2.4-0.5-3.9-1
						c-1.5-0.5-3-1.1-3.8-1.2c-1.5-0.9,0.9-0.1,0.2-0.9c0,0-0.6-0.1-1.2-0.2c-0.6-0.1-1.3-0.1-1.3-0.1c0.1-0.9-3.9-3.1,0.3-2.1
						l-3.5-1.4c-1.9-1.2-4.9-2.4-6.8-2.6c-1.7-0.7-4.7-0.3-3-0.5c0,0-1.5-0.3-3-0.5c-1.5-0.2-3-0.4-3-0.4l0-0.2
						c-2.9-0.8-5.9-0.9-9.1-1.3c-3.1-0.2-6.3-0.7-9.6-1.7c-1,0-2,0.1-3.2,0.1c-1.2,0-2.5,0-4.2-0.2l-0.6-0.8c-1.3,0.1-3.2,0-5-0.1
						c-1.7-0.1-3.3-0.1-3.8,0.4c-0.7-0.5-1.9-0.7-3.3-0.7c-0.7,0-1.4,0-2.2,0c-0.8,0.1-1.6,0.2-2.4,0.3c-1.7,0.3-3.4,0.5-4.9,0.9
						c-1.6,0.3-3,0.6-4.1,0.7l0,1c-1.5,0.2-3,0.7-4.5,1.1c-0.8,0.2-1.6,0.5-2.4,0.8c-0.8,0.3-1.7,0.6-2.6,1l0.5,0.8
						c-1.5,0.8-3.6,1.2-5.8,1.7c-1.2,0.3-2.4,0.5-3.6,0.8c-1.2,0.3-2.5,0.8-3.7,1.3c0.2-0.4,1.5-0.9,2.4-1c-1.6,0.1-3.2,0.5-4.7,1.2
						c-1.5,0.7-2.9,1.5-4.3,2.4c-1.4,0.8-2.7,1.8-4,2.6c-1.3,0.8-2.7,1.4-4.1,1.8c-1.1,1-2,1.4-3,1.7c0.1-0.1,0.2-0.1,0.3-0.2
						c-0.1,0.1-0.3,0.2-0.5,0.3c-0.6,0.2-1.3,0.4-1.9,0.6c0.6-0.1,1.2-0.3,1.7-0.5c-0.9,0.6-2.2,1.6-3.5,2.6l-1.1-0.4
						c-0.1,0.1-0.2,0.1-0.3,0.2c-1.5,0.6-0.8,1.1,0.3,1.2c-0.6,0.6-1.1,1.2-1.4,1.7c-1-0.3-1.8,0.5-2.6,1.2c-0.4,0.4-0.9,0.7-1.3,1
						c-0.5,0.3-1,0.5-1.6,0.4c-0.2,0.7-1.7,2-3.1,3.5c-1.3,1.5-2.6,3.1-2.3,4c-0.2-0.1-0.6,0.1,0-0.5c-1.5,1-2.9,2.1-3.7,3.5
						l-1.4-0.4c0,0-0.4,1-0.8,1.9c-0.4,1-0.8,2-0.8,2c-2.2,1.2-3.2,1.6-2.2-0.8C37,43.1,36.4,44,36,44.6c-0.4,0.7-0.7,1.1-1,1.6
						c-0.6,0.9-1.1,1.7-2.1,4l-0.5-0.7c-1,1.4-1.9,4.2-3.1,4.6c-0.9,0.5-2,1.8-3.3,3.5c-0.7,0.8-1.3,1.8-2,2.8
						c-0.7,1-1.4,2.2-2.2,3.3c-2.9,4.7-5.8,10.3-8.4,14.6c1.5-0.4,0.7,0.5-0.1,1.7c-0.8,1.2-1.8,2.7-1.1,3.2
						c-0.7,0.3-1.5,1.5-1.4-0.2c-0.4,1.2-0.7,2.3-1.1,3.2c-0.4,0.9-0.7,1.8-1,2.6c-0.7,1.6-1,3.1-0.8,5c-0.7,0.4-0.5-1.3-0.9-0.9
						c0,0.4,0,1.7-0.4,2.1c-0.5,0.4-0.2-0.8-0.3-1.7c-0.3,1.3-0.5,2.3-0.5,3.1c0,0.8,0.1,1.4,0.4,1.9c0.4,1,1.2,1.4,1.9,1.7
						c-0.7,1.2-1,2.1-1.2,3c-0.1,0.9,0,1.7,0.4,2.7c-0.7,0.8-1.5,2.2-1.1-1c-0.1,0.4-0.3,1.3-0.6,2.4c-0.1,0.5-0.3,1.1-0.4,1.8
						c-0.1,0.6-0.2,1.3-0.3,1.9c-0.3,2.5-0.5,4.9,0.2,5c-0.4,0.5-0.3,2.5-0.2,3c-0.1,1-0.2,1.8-0.2,2.4c-0.1,0.7-0.1,1.2-0.1,1.7
						c-0.1,1.1-0.1,2.2-0.1,4.1l0.2-1.1c1.5,1.6,0.3,3.3,0.6,6.4l-0.2-0.1C5,134.4,5,135.5,5,136.3c0,0.7,0.1,1.1,0.2,1.5
						c0.1,0.4,0.2,0.8,0.2,1.5c0,0.4,0,0.8,0,1.4c0,0.6,0,1.3-0.1,2.2l0.9-0.5c1.1,0.2,1,1.8,0.8,3.9c-0.1,2.1-0.3,4.6,0.5,6.6
						c0,0,0.1-0.4,0.1-0.8c0.1-0.4,0.1-0.8,0.1-0.8c0.5,1.1,0.2,2.7-0.2,4.5c-0.4,1.7-1,3.6-0.8,4.7c0,0.5-0.5-0.7-0.8-1.4
						c0.5,6.2,1.4,0.4,2.9,4.7c-0.4,1-2-0.5-1.2,2.4c0,0.8,1.2,2.8,2.5,5c0.7,1.1,1.4,2.3,1.9,3.5c0.3,0.6,0.5,1.2,0.7,1.8
						c0.2,0.6,0.3,1.1,0.4,1.7c0.1-1.1,0.2-2.1,1.4-0.3c0.8,1.4,1.1,3.6,1.9,5.7c0.7,2,1.5,4,3,4.8c0.1,0.4,0,0.6-0.1,0.7
						c0.8,1,1.9,2.6,3.1,4.1c1.2,1.5,2.4,2.8,3.2,3.1c-0.4,0.9,0.1,2.1,0.9,3.4c0.9,1.3,2.1,2.7,3.3,3.9c1.3,1.2,2.4,2.4,3.2,3.4
						c0.8,0.9,1.1,1.7,0.5,2.2c0,0,0.3,0.4,0.8,0.9c0.5,0.5,1.1,1.2,1.8,1.9c1.3,1.3,2.7,2.7,2.7,2.7l-0.4,0.1
						c1.6,1.9,2.9,2.8,4,3.5c1.1,0.7,1.9,1,2.8,1.3c0.7,0.9-0.1,0.6-0.3,0.6c2.5,2.5,3.8,3.9,5.4,4.9c1.5,1,3,1.8,5.9,2.8l-0.1,1.2
						c0.4,0.1,1.1,0.6,1.9,1.4c0.9,0.7,2,1.6,3.3,2.6c0.6,0.5,1.3,1,2,1.5c0.7,0.5,1.5,1,2.3,1.4c1.6,0.9,3.2,1.8,4.9,2.3
						c-0.1,0.1-0.3,0.2-0.9,0c3.7,1.3,7.6,3.9,11.3,5.8c3.6,1.9,6.9,3,8.8,1.8c0,0,1.3,0.2,2.6,0.3c1.3,0.1,2.6,0.3,2.6,0.3
						c-6.2-2.1,1.4-1.2-1.1-2.6c1.3,0.2,2.8,1,3.6,1.5c0.8,0.5,1,1-0.6,0.7l-0.4-0.3c-1.6,1.6,7.8,2.6,7.4,3.7
						c6.4,1.2,12.8,2.1,19.1,2.7c1.6,0.1,3.2,0.2,4.7,0.3c1.6,0.1,3.2,0.1,4.7,0.1c0.8,0,1.6,0,2.3,0c0.8,0,1.6-0.1,2.3-0.1
						c1.6-0.1,3.1-0.1,4.6-0.3c0,0-0.4-0.3-0.8-0.6c-0.4-0.3-0.8-0.7-0.8-0.7s0.3,0,0.7,0c0.4,0,0.9-0.1,1.5-0.2
						c1.1-0.1,2.1-0.2,2.1-0.2c1.2,0.2,1.7,0.9-1.4,1.3c1.7,0.6,5-1.3,5-1.7c6-0.5-2,2.1-0.2,1.8l2.5-0.5l-0.6-0.1
						c0.9-0.5,1.4-0.9,2.1-1.2c0.3-0.2,0.8-0.3,1.3-0.5c0.5-0.2,1.2-0.4,2.1-0.6c2.3-0.2,1.4,0.6,2.3,0.5c0,0.1,0.3,0.1,1.4-0.3
						c0,0,0.3-0.1,0.8-0.2c0.5-0.1,1.1-0.3,1.8-0.5c1.3-0.3,2.6-0.7,2.6-0.7l-2.4-0.5c2.1-1.2,4.9-1.3,2.1-1.9
						c2,0.4,6.9-0.9,11.3-2.8c2.2-0.9,4.4-2,6.1-2.7c1.7-0.8,3-1.5,3.6-1.6c0.6-0.6,1.3-1.1,2-1.6c0.7-0.5,1.4-1,2.1-1.5
						c1.5-1,3.1-1.8,4.8-2.9c-1,0.3-2.2-0.4,0.8-2.2c0.2,1.4,1.7,0.9,3.6-0.2c1.8-1.1,4.1-2.5,5.8-2.6c-1.4,0.3,0.5-1.3,2.3-2.9
						c1.7-1.6,3.2-3.2,1.1-2.5c2.3-1.7,0.8,0.7,2.9-0.3c1.2-1.3,2.4-2.7,3.8-4c0.7-0.7,1.4-1.3,2.2-2c0.7-0.7,1.5-1.4,2.2-2.1
						c0.7-0.7,1.5-1.4,2.3-2.1c0.7-0.8,1.5-1.5,2.2-2.3c1.5-1.5,2.8-3.2,4.1-5c-0.2-0.3-1.5,0.5-0.8-1.3c0,0,0.3-0.2,0.7-0.4
						c0.4-0.2,0.9-0.6,1.4-0.9c1-0.7,2-1.4,2-1.4c0.4-0.8,0.2-1.4,0.3-2c0.1-0.6,0.3-1.3,1.7-2.3c-0.5,0.2-1.2,0.5-0.7-0.5
						c5.3-6.6,9.1-14.6,12-22.7c3-8.2,5.3-16.5,8.2-24.8c-1.1,2.2-0.9,0.6-0.6-1.1c-0.4,1.1-0.9-0.2-1.4,0c0,0,0.1-0.4,0.4-1.1
						c0.2-0.7,0.5-1.5,0.8-2.4c0.3-0.9,0.6-1.7,0.8-2.4c0.2-0.7,0.3-1.1,0.3-1.1c-0.6-0.7-0.5-2.6-0.4-4.5c0.1-1.9,0.1-3.6-0.5-4
						l0.2,2.3c-0.7-1.5-1.5-0.5-2.5,0.8c-1,1.3-2,2.9-3,2.6c0.4,0.8,0.3,1.8,0.1,2.8c-0.2,1-0.7,2.1-1.1,3.3c-0.8,2.3-1.7,4.8-1,7.6
						c-0.6,1.1-0.4-1.1-1-0.6c0.6,1.5,0.4,3.1-0.7,5.9l-0.1-0.4c-0.4,2.1-1,3.8-1.5,5.4c-0.5,1.6-1.1,3-1.7,4.5
						c-0.6,1.4-1.2,2.9-2.1,4.5c-0.8,1.6-1.6,3.4-2.8,5.5l1.2-0.2c-1,1.8-1.4,2.1-2,2.8c0.3,2.7,2.4-5.1,3-2.6
						c-0.7,0.4-1.4,1.4-2.2,2.8c-0.7,1.3-1.6,2.8-2.4,4.4c-0.8,1.6-1.7,3-2.5,4.1c-0.8,1.1-1.6,1.9-2.3,2c-1.7,2.6,1.4-0.2-0.3,2.4
						l-0.9,0.4l0.2,1.1c-1.2,1.7-2.5,2-2.9,1.8c0.3-0.4,0.7-1.2,1-1.7c-1,0.9-2.1,2.4-2.9,3.8c-0.8,1.4-1.6,2.6-2,2.9
						c0,0,0.5-0.5,1.1-1.1c0.3-0.3,0.5-0.5,0.7-0.7c0.2-0.2,0.3-0.3,0.3-0.3c-1.2,1.7-2.5,3.6-3.9,5.3c-1.5,1.7-3,3.5-4.6,5.2
						c-0.8,0.9-1.6,1.7-2.4,2.5c-0.8,0.8-1.6,1.6-2.4,2.4c-1.5,1.7-3.1,3.2-4.4,4.8l0.8-0.1c-0.5,0.6-1,1.1-1.4,1.5
						c-0.4,0.4-0.8,0.7-1.2,1c-0.7,0.5-1.2,0.9-1.8,1.2c-0.6,0.3-1.2,0.7-2,1.2c-0.8,0.5-1.8,1.2-3.2,2.3l0.1-0.2
						c-0.8,1.2-2.3,2.4-3.9,3.3c1.2-1.4-3.3,0.9-1.7-0.8c-2.6,2.2-3.3,2.7-3.7,3.2c-0.4,0.5-0.4,1-2,2.8l-1.3-0.2
						c-0.5,0.6-0.8,1.1-1.3,1.5c-0.5,0.5-1.2,1-2.8,1.8c2.3-1.8-2.5-0.1,0-2.2c-1.8,0.4-3.3,0.9-4.5,1.5c-1.3,0.6-2.3,1.2-3.3,1.7
						c-1.9,1.1-3.5,1.9-5.4,1.3c-1.2,1.5,0.3,1.3,2,0.8c1.7-0.4,3.4-1.3,2.7-0.8c0.8,0,0.3,0.6-0.7,1.3c-1,0.6-2.6,1.3-3.7,1.6
						c-1.1,0.4-2.3,0.1-3.8-0.2c-0.8-0.1-1.7-0.2-2.7-0.2c-0.5,0-1.1,0.1-1.7,0.2c-0.6,0.1-1.3,0.2-2,0.4c0.6-0.1,0.6-0.3,1.1-0.4
						c-1.1,0-2.1,0.4-3.2,0.8c-0.5,0.2-1.1,0.4-1.7,0.5c-0.6,0.1-1.2,0.1-1.9,0c-1.2,1.5-3.4,0.5-3.6,2.2l5.2-1.3
						c-1.4,0.5-2.8,1.3-4.4,2c-1.6,0.7-3.6,1.1-6.1,1c0.4-0.4,1.8-1,2.8-1.3c-1.5-0.3-2.8,0.7-4.3,0.3c0.1-0.8,1.7-1.1,3.7-1.3
						c1-0.1,2-0.3,3-0.5c1-0.3,1.9-0.6,2.7-1c-0.8-0.2-2.3,0.4-3.3,0.7c-1.1,0.3-1.8,0.4-1.1-0.5c-1,1.2-2.4,1.3-4,1.4
						c-1.6,0-3.4-0.1-5.3,0.9l0.2-1c-0.6,0.2-1.9,0.7-3,0.7l2-1.3c-3.1,1.1-6.1-0.7-9-0.3c3.1,0.1,3.5,0.4,3.4,0.7
						c-0.1,0.4-0.7,0.9,0.7,1.2c-7.9,1.1-4.5-2.4-13.1-2.6c1.2,0,4.3,0.9,2.5,1.2c-0.8-0.2-1.8-0.3-2.6-0.6
						c-0.9-0.3-1.6-0.6-2.1-0.9c-5.7-0.5,0.7,1.1-1.8,1.3c-1.8-1.4-2.9,0-5.5,0l0.2-1c-0.8-0.2-1.4-0.4-1.9-0.4
						c-0.5-0.1-0.9-0.1-1.2-0.1c-0.6,0-0.8,0.2-1.1,0.4c-0.5,0.4-0.8,0.8-3.7-0.2l2.8-0.7c0,0-0.8-0.1-1.6-0.2
						c-0.4,0-0.8-0.1-1.1-0.1c-0.3,0-0.5-0.1-0.5-0.1l0.9-0.9c-1.7,0-2.8-0.2-3.9-0.5c-1.1-0.3-2.1-0.7-3.6-1.4
						c0.5,0.9-1,1.5-3.8,0.6c-1.7-1.2,1.4-0.4-2.6-1.8c1.1-0.2,2.3-0.5,3.7,0.9c0.3-0.2,1.1-0.3,1.4-0.5c-1.8-1.2-5-2-6.4-2.5
						c0.5,0.2,1.1,0.5,1.4,0.8c0,0-1.5-0.2-3-0.5c-1.5-0.3-3-0.6-3-0.6c-0.7-0.7,0.1-0.7,0.9-0.6c-1.1-0.4-2.1-0.3-3.8-1.1
						c0.8-0.5,1-1.2,3.4-0.6c0,0-0.3-0.1-0.9-0.2c-0.5-0.1-1.2-0.3-1.9-0.6c-1.4-0.5-2.7-0.9-2.7-0.9c-0.2-0.5-2.1-2.2-1.3-2.1
						c-1.2-1-3.1-1.6-5-2.3c-1.9-0.8-4-1.7-5.5-3.1c-0.3,0-0.7-0.1-1.5-0.6c-0.8-0.6-1.5-1.2-2.2-1.9c-0.7-0.7-1.4-1.3-2.1-2
						c-0.7-0.7-1.5-1.3-2.3-1.9c-0.8-0.6-1.7-1.2-2.8-1.8c0,0-0.3-0.7-0.5-1.4c-0.3-0.7-0.5-1.4-0.5-1.4c-2.8-2.3,1.4,3.8-3.4,0
						c-3.4-2.7-0.3-2-1.1-3.3c-1-0.5-2.4-1.2-3.8-2.2c-1.4-1-2.7-2.5-3.5-4.3C40,203,40.5,203.9,41.4,204.8z M18.1,166.4
						c0.2,0.4,0.6,0.9,0.9,1.5c0.3,0.5,0.6,1.1,0.4,1.5C18.1,168.9,18.3,167.9,18.1,166.4z M13.1,98c0.1,0.7-0.2,1.7-0.9,2.7
						C12.4,99.9,12.6,99,13.1,98z M168.9,9.4c0,0-0.1,0-0.1,0C166.9,8.4,167.6,8.8,168.9,9.4z M172.9,11.3c0.5,0,0.5-0.1,0.4-0.3
						c-0.4,0.1-1.3-0.2-2.3-0.7C171.1,10.7,171.6,11,172.9,11.3z M157.9,249L157,249C158.8,248.3,158.3,248.6,157.9,249z"/>
					<path class="st0" d="M12.7,106c-0.2,0.2-0.4,0.3-0.6,0.3C12.2,106.7,12.4,106.7,12.7,106z"/>
					<path class="st0" d="M62.6,222.9l0.1,0.1c0.1,0,0.2,0,0.2-0.1L62.6,222.9z"/>
					<path class="st0" d="M107.8,12.9c-0.9,0-1.3-0.1-1.7-0.2C106.1,13,106.5,13.1,107.8,12.9z"/>
					<path class="st0" d="M194.5,20.2c0,0-0.2-0.1-0.4-0.2c-0.2-0.1-0.6-0.3-0.9-0.4c-0.6-0.3-1.3-0.6-1.3-0.6
						c1.2,0.6,1.5,1.1,2,1.6C194,20.3,193.7,19.7,194.5,20.2z"/>
					<path class="st0" d="M210,39.4c0.4,0.2,0.6,0.6,1,0.7l0.2-0.4C209.9,38.6,208.8,38.1,210,39.4z"/>
					<path class="st0" d="M194.9,24.3c-0.1,0.4,0.2,0.8,0.8,1.2c0.3,0.2,0.6,0.4,1,0.6c0.4,0.2,0.8,0.5,1.2,0.7
						c-0.1-0.1-0.2-0.1-0.3-0.2c0.6-0.3,0.4-0.7-0.2-1.1C196.9,25.1,195.9,24.7,194.9,24.3z"/>
					<path class="st0" d="M198.3,27c0.5,0.3,1,0.6,1.5,1C200.2,27.8,199.3,27.5,198.3,27z"/>
					<path class="st0" d="M178.2,12.9c0.8,0.6,1-0.7,1.3-0.2c0.7-0.3-0.9-0.6-2-0.7c-0.5-0.1-1,0-1,0.1
						C176.6,12.3,177,12.5,178.2,12.9z"/>
					<polygon class="st0" points="194.8,27.4 194.8,26.2 193.4,26.3 					"/>
					<path class="st0" d="M182.2,19.2l2.6,1.6c0-0.2,0.4-0.1,0.9,0.1C184,20,182.2,18.9,182.2,19.2z"/>
					<path class="st0" d="M185.6,20.9c0.9,0.5,1.7,0.9,2.2,1.1C187.4,21.7,186.4,21.2,185.6,20.9z"/>
					<path class="st0" d="M191.1,25.4l-0.6-0.7l-1.8-1.1c0,0,0.6,0.4,1.2,0.9C190.5,24.9,191.1,25.4,191.1,25.4z"/>
					<path class="st0" d="M151.3,8.5L148,8.2c-0.4,0.3,0.5,0.6,1.7,0.7C150.5,8.9,151.8,9,151.3,8.5z"/>
					<path class="st0" d="M160.4,13.5c-0.8-0.4-0.8-0.7-1.2-1.1l-0.4,1.2L160.4,13.5z"/>
					<path class="st0" d="M151.1,11.6c-0.4,0.3-4.8,0.2-0.8,0.8C150.7,12.1,154,12.4,151.1,11.6z"/>
					<polygon class="st0" points="102.2,10.5 103,10.3 102.5,8.4 					"/>
					<path class="st0" d="M64.9,31.4c3.4-1.6,0.1-1.6,3.3-2.8c0.5-0.9-2.6,1.1-2.1,0.2C64.4,30.5,63.3,30.9,64.9,31.4z"/>
					<path class="st0" d="M66.1,28.8c0.3-0.3,0.5-0.6,0.8-0.9C66.4,28.4,66.2,28.6,66.1,28.8z"/>
					<path class="st0" d="M253.5,135.2c0,0,0.2-0.6,0.3-1.3c0.1-0.7,0.2-1.3,0.2-1.3l-0.7,1.7c0,0,0.1,0.2,0.1,0.5
						C253.4,135,253.5,135.2,253.5,135.2z"/>
					<path class="st0" d="M252.1,130.2l1.3-0.6l-1.1-1.6C252.3,128.6,252.4,129.7,252.1,130.2z"/>
					<path class="st0" d="M18.6,159.3l-0.4-0.1c-0.2,0.4-0.1,1,0.2,2.1L18.6,159.3z"/>
					<polygon class="st0" points="30.8,189 30.6,188.5 30.1,190 					"/>
					<path class="st0" d="M48.9,209.1c-0.8-0.8-1.8-1.5-2.6-2.4C48.1,208.3,48.1,210.3,48.9,209.1z"/>
				</g>
			</g>
		</g>
	</g>
</g>
<g>
	<path class="st1" d="M183.9,196.2H72.1c-6.8,0-12.3-5.5-12.3-12.3V72.1c0-6.8,5.5-12.3,12.3-12.3h111.8c6.8,0,12.3,5.5,12.3,12.3
		v111.8C196.2,190.7,190.7,196.2,183.9,196.2z"/>
	<polygon class="st1" points="131.4,196.2 122.5,196.2 122.5,67.9 122.5,59.8 131.4,59.8 131.4,66.9 	"/>
	
		<rect x="124.4" y="57.5" transform="matrix(-1.836970e-016 1 -1 -1.836970e-016 252.4341 -3.7342)" class="st1" width="7.3" height="133.7"/>
	<path class="st1" d="M168.7,97c1.7-4,0.7-9.1-2.9-12.5c-4.6-4.2-11.6-5-16.1-1.4c-1.5,1.2-5.7,5.7-8.9,11
		c-3.8,6.3-6.4,13.7-7.2,16.4c-0.5,1.7-2.2,5.9-0.6,8.1c1.6,2.2,6.7-0.3,8.1-0.9c3-1.4,11.3-4.8,17.6-9.4
		C164.1,104.3,167.8,99.2,168.7,97z"/>
	<path class="st1" d="M102.4,80.2c-3.9-2-9.2-1.3-12.9,2.2c-4.6,4.4-6,11.5-2.8,16.3c1.1,1.6,5.3,6.1,10.4,9.7
		c6,4.2,13.4,7.4,16.1,8.4c1.7,0.7,5.9,2.6,8.2,1.1c2.4-1.5,0.3-6.8-0.2-8.3c-1.2-3.1-3.9-11.8-8.1-18.5
		C109.5,85.4,104.6,81.3,102.4,80.2z"/>
	<line class="st1" x1="126.2" y1="124.3" x2="92.7" y2="165.7"/>
	<line class="st1" x1="163.6" y1="166" x2="128" y2="124.3"/>
</g>
</svg>
